<?xml version="1.0" standalone="no"?>
<!DOCTYPE svg PUBLIC "-//W3C//DTD SVG 1.1//EN" "http://www.w3.org/Graphics/SVG/1.1/DTD/svg11.dtd" >
<svg xmlns="http://www.w3.org/2000/svg" xmlns:xlink="http://www.w3.org/1999/xlink" version="1.1">
<metadata>
Created by FontForge 20200314 at Mon Apr  3 20:19:07 2017
 By Unknown
Copyright (c) 2017 by Alberto Romanos. All rights reserved.
</metadata>
<defs>
<font id="BwGradual-Regular" horiz-adv-x="603" >
  <font-face 
    font-family="Bw Gradual"
    font-weight="400"
    font-stretch="normal"
    units-per-em="1000"
    panose-1="0 0 5 0 0 0 0 0 0 0"
    ascent="770"
    descent="-230"
    x-height="495"
    cap-height="740"
    bbox="-726 -240 1220 1017"
    underline-thickness="50"
    underline-position="-150"
    unicode-range="U+000D-FB02"
  />
<missing-glyph horiz-adv-x="1274" 
d="M1214 369l-368 -372q-7 -7 -17 -7q-20 0 -20 23v324l-339 -340q-7 -7 -17 -7q-20 0 -20 23v324l-340 -340q-7 -7 -17 -7q-17 0 -17 18q0 10 5 15l342 341h-324q-23 0 -23 19q0 7 7 16l340 342h-327q-20 0 -20 19v1q0 19 20 19h370q23 0 23 -20q0 -10 -8 -17l-341 -340
h330q8 0 14 -6t6 -14v-327l339 338q7 8 17 8q18 0 18 -22v-324l340 338q6 8 16 8q7 0 12 -5.5t5 -13.5q0 -9 -6 -14z" />
    <glyph glyph-name="fi" unicode="fi" horiz-adv-x="599" 
d="M522 495v-495h-82v434h-253v-434h-82v434h-80v61h152v2q-36 20 -57 53.5t-21 74.5q0 73 46.5 114t129.5 41q54 0 92 -19l-12 -63q-27 14 -63 14q-54 0 -82.5 -27.5t-28.5 -77.5v-112h341zM440 710h82v-105h-82v105z" />
    <glyph glyph-name="fl" unicode="fl" horiz-adv-x="607" 
d="M292 712q-54 0 -82.5 -27.5t-28.5 -77.5v-112h175v-61h-169v-434h-82v434h-80v61h152v2q-36 20 -57 53.5t-21 74.5q0 73 46.5 114t129.5 41q54 0 92 -19l-12 -63q-27 14 -63 14zM448 770h82v-770h-82v770z" />
    <glyph glyph-name="f_f" unicode="ff" horiz-adv-x="689" 
d="M612 712q-54 0 -82.5 -27.5t-28.5 -77.5v-112h175v-61h-169v-434h-82v434h-238v-434h-82v434h-80v61h152v2q-36 20 -57 53.5t-21 74.5q0 73 46.5 114t129.5 41q54 0 92 -19l-12 -63q-27 14 -63 14q-54 0 -82.5 -27.5t-28.5 -77.5v-112h316v2q-36 20 -57 53.5t-21 74.5
q0 73 46.5 114t129.5 41q57 0 99 -21l-11 -64q-30 17 -71 17z" />
    <glyph glyph-name="f_f_i" unicode="ffi" horiz-adv-x="919" 
d="M842 495v-495h-82v434h-253v-434h-82v434h-238v-434h-82v434h-80v61h152v2q-36 20 -57 53.5t-21 74.5q0 73 46.5 114t129.5 41q54 0 92 -19l-12 -63q-27 14 -63 14q-54 0 -82.5 -27.5t-28.5 -77.5v-112h316v2q-36 20 -57 53.5t-21 74.5q0 73 46.5 114t129.5 41
q54 0 92 -19l-12 -63q-27 14 -63 14q-54 0 -82.5 -27.5t-28.5 -77.5v-112h341zM760 710h82v-105h-82v105z" />
    <glyph glyph-name="f_f_l" unicode="ffl" horiz-adv-x="927" 
d="M612 712q-54 0 -82.5 -27.5t-28.5 -77.5v-112h175v-61h-169v-434h-82v434h-238v-434h-82v434h-80v61h152v2q-36 20 -57 53.5t-21 74.5q0 73 46.5 114t129.5 41q54 0 92 -19l-12 -63q-27 14 -63 14q-54 0 -82.5 -27.5t-28.5 -77.5v-112h316v2q-36 20 -57 53.5t-21 74.5
q0 73 46.5 114t129.5 41q54 0 92 -19l-12 -63q-27 14 -63 14zM768 770h82v-770h-82v770z" />
    <glyph glyph-name=".notdef" horiz-adv-x="1274" 
d="M1214 369l-368 -372q-7 -7 -17 -7q-20 0 -20 23v324l-339 -340q-7 -7 -17 -7q-20 0 -20 23v324l-340 -340q-7 -7 -17 -7q-17 0 -17 18q0 10 5 15l342 341h-324q-23 0 -23 19q0 7 7 16l340 342h-327q-20 0 -20 19v1q0 19 20 19h370q23 0 23 -20q0 -10 -8 -17l-341 -340
h330q8 0 14 -6t6 -14v-327l339 338q7 8 17 8q18 0 18 -22v-324l340 338q6 8 16 8q7 0 12 -5.5t5 -13.5q0 -9 -6 -14z" />
    <glyph glyph-name=".null" horiz-adv-x="0" 
 />
    <glyph glyph-name="nonmarkingreturn" horiz-adv-x="333" 
 />
    <glyph glyph-name="CR" unicode="&#xd;" horiz-adv-x="238" 
 />
    <glyph glyph-name="space" unicode=" " horiz-adv-x="238" 
 />
    <glyph glyph-name="exclam" unicode="!" horiz-adv-x="261" 
d="M93 193l-5 547h86l-5 -547h-76zM80 95h100v-95h-100v95z" />
    <glyph glyph-name="quotedbl" unicode="&#x22;" horiz-adv-x="335" 
d="M62 770h77v-203h-77v203zM196 770h77v-203h-77v203z" />
    <glyph glyph-name="numbersign" unicode="#" horiz-adv-x="682" 
d="M642 506h-130l-25 -248h128l-6 -40h-126l-22 -218h-47l23 218h-228l-23 -218h-47l23 218h-127l5 40h126l26 248h-125l5 40h125l20 194h47l-19 -194h225l19 194h47l-20 -194h131zM440 259l26 247h-225l-28 -247h227z" />
    <glyph glyph-name="dollar" unicode="$" horiz-adv-x="646" 
d="M608 211q0 -99 -69 -157t-193 -63v-103h-46v103q-118 5 -187.5 74t-76.5 188h85q5 -84 52 -133.5t127 -55.5v286q-45 7 -72 13t-64 20t-57.5 32.5t-35.5 50.5t-15 75q0 95 64 149.5t180 59.5v100h46v-101q107 -7 170.5 -73t70.5 -178h-85q-4 77 -45 123t-111 54v-256
q49 -8 76.5 -13.5t68 -21t62.5 -35.5t38.5 -55.5t16.5 -82.5zM143 546q0 -56 40.5 -81.5t116.5 -38.5v251q-74 -4 -115.5 -38.5t-41.5 -92.5zM346 64q83 5 128.5 41.5t45.5 99.5q0 35 -13 59.5t-40 39.5t-53.5 23.5t-67.5 15.5v-279z" />
    <glyph glyph-name="percent" unicode="%" horiz-adv-x="715" 
d="M102 15l478 735l33 -25l-478 -735zM181 360q-66 0 -103 49t-37 136t37 136t103 49t103 -49t37 -136t-37 -136t-103 -49zM181 413q34 0 53.5 35t19.5 97t-19.5 97t-53.5 35q-35 0 -54.5 -35t-19.5 -97t19.5 -97t54.5 -35zM535 -10q-66 0 -103 49t-37 136t37 136t103 49
q67 0 104 -49t37 -136t-37 -136t-104 -49zM535 43q35 0 54.5 35t19.5 97t-19.5 97t-54.5 35q-34 0 -53.5 -35t-19.5 -97t19.5 -97t53.5 -35z" />
    <glyph glyph-name="ampersand" unicode="&#x26;" horiz-adv-x="796" 
d="M778 46l-51 -56l-144 127q-116 -127 -281 -127q-120 0 -188.5 55.5t-68.5 151.5q0 39 9.5 71.5t30.5 57t40.5 41.5t54.5 33.5t55.5 24.5t59.5 22q7 2 19.5 7t15.5 6q-98 0 -156.5 36.5t-58.5 96.5q0 74 57.5 115.5t161.5 41.5q102 0 159.5 -43.5t57.5 -122.5
q0 -32 -13 -59.5t-30.5 -45t-50.5 -36.5t-56 -28.5t-64 -25.5q-43 -17 -62.5 -25t-53 -26.5t-48.5 -35.5t-28 -44.5t-13 -60.5q0 -62 46.5 -98t128.5 -36q131 0 224.5 103.5t129.5 288.5l71 -20q-31 -150 -102 -257zM200 579q0 -53 37 -85t99 -32q63 24 95.5 49.5t32.5 67.5
q0 47 -34 72.5t-96 25.5q-63 0 -98.5 -26t-35.5 -72z" />
    <glyph glyph-name="quotesingle" unicode="'" horiz-adv-x="201" 
d="M62 770h77v-203h-77v203z" />
    <glyph glyph-name="parenleft" unicode="(" horiz-adv-x="270" 
d="M253 -216q-155 214 -155 486q0 271 155 486l-37 24q-166 -231 -166 -510t166 -510z" />
    <glyph glyph-name="parenright" unicode=")" horiz-adv-x="270" 
d="M17 -216l37 -24q166 231 166 510t-166 510l-37 -24q155 -215 155 -486q0 -272 -155 -486z" />
    <glyph glyph-name="asterisk" unicode="*" horiz-adv-x="380" 
d="M277 607q-41 0 -83 22l-2 -2l78 -108l-45 -34q-25 34 -32 69q-8 30 -3 73l-3 1l-78 -108l-47 32q34 51 91 68q19 8 35 11h-1v2l-128 42l17 54q75 -22 113 -94h2v135h58q0 -76 -55 -136l1 -2l128 41l18 -55q-35 -11 -64 -11z" />
    <glyph glyph-name="plus" unicode="+" horiz-adv-x="467" 
d="M425 272v-40h-168v-171h-47v171h-167v40h167v171h46v-171h169z" />
    <glyph glyph-name="comma" unicode="," horiz-adv-x="226" 
d="M68 95h100v-81q0 -59 -26.5 -102t-73.5 -60v54q84 22 94 94h-94v95z" />
    <glyph glyph-name="hyphen" unicode="-" horiz-adv-x="403" 
d="M68 271h268v-39h-268v39z" />
    <glyph glyph-name="period" unicode="." horiz-adv-x="230" 
d="M65 95h100v-95h-100v95z" />
    <glyph glyph-name="slash" unicode="/" horiz-adv-x="406" 
d="M335 800l43 -14l-308 -926l-43 14z" />
    <glyph glyph-name="zero" unicode="0" horiz-adv-x="647" 
d="M324 -10q-127 0 -197.5 100.5t-70.5 279.5t70.5 279.5t197.5 100.5q126 0 197 -100.5t71 -279.5t-71 -279.5t-197 -100.5zM324 63q85 0 132.5 81t47.5 226t-47.5 226t-132.5 81t-132.5 -81t-47.5 -226t47.5 -226t132.5 -81z" />
    <glyph glyph-name="one" unicode="1" horiz-adv-x="346" 
d="M166 740h86v-740h-86v708h-2q0 -67 -36.5 -104t-101.5 -37v75q66 0 103 26t37 72z" />
    <glyph glyph-name="two" unicode="2" horiz-adv-x="600" 
d="M84 70h471v-70h-512v65q190 54 296 169.5t106 268.5q0 82 -40 128t-110 46q-71 0 -114 -51.5t-47 -143.5h-83q6 126 71 197t175 71q113 0 176 -65.5t63 -182.5q0 -171 -119 -284.5t-333 -145.5v-2z" />
    <glyph glyph-name="three" unicode="3" horiz-adv-x="601" 
d="M292 412q120 0 188 -55t68 -153q0 -101 -68 -157.5t-190 -56.5q-110 0 -175 63.5t-70 176.5h83q3 -80 46 -124.5t117 -44.5q79 0 123.5 37.5t44.5 105.5t-46 105.5t-129 37.5h-21v67q83 10 129 47t46 94q0 58 -39 91t-109 33q-66 0 -105.5 -45.5t-44.5 -125.5h-81
q6 114 70 178t171 64t166.5 -45.5t59.5 -125.5q0 -78 -62.5 -121.5t-175.5 -43.5v-2h4z" />
    <glyph glyph-name="four" unicode="4" horiz-adv-x="598" 
d="M566 262v-70h-96v-192h-86v192h-358v76l282 472h162v-478h96zM384 732l-276 -468v-2h278v470h-2z" />
    <glyph glyph-name="five" unicode="5" 
d="M301 -10q-107 0 -174 57t-79 158h85q11 -67 55 -104.5t112 -37.5q81 0 126.5 47t45.5 131t-45 131.5t-124 47.5q-127 0 -166 -127l-83 11l57 436h394v-70h-316l-51 -358h2q14 83 67 129.5t134 46.5q103 0 161.5 -64.5t58.5 -178.5q0 -120 -69 -187.5t-191 -67.5z" />
    <glyph glyph-name="six" unicode="6" horiz-adv-x="633" 
d="M356 476q107 0 166.5 -61t59.5 -171q0 -119 -70.5 -186.5t-188.5 -67.5q-267 0 -267 357q0 190 73.5 296.5t204.5 106.5q101 0 162.5 -57t68.5 -159h-84q-6 68 -44.5 105.5t-102.5 37.5q-90 0 -141 -85.5t-51 -236.5v-72h2q0 91 56 142t156 51zM319 63q83 0 129 46.5
t46 129.5q0 79 -46 123t-129 44q-81 0 -126.5 -42t-45.5 -117q0 -84 48 -134t124 -50z" />
    <glyph glyph-name="seven" unicode="7" horiz-adv-x="535" 
d="M14 740h503v-65q-116 -29 -181 -185.5t-65 -404.5v-85h-90v70q0 261 79 419.5t220 178.5v2h-466v70z" />
    <glyph glyph-name="eight" unicode="8" horiz-adv-x="626" 
d="M381 415q92 -14 142 -68.5t50 -139.5q0 -103 -69 -160t-191 -57t-191 57t-69 160q0 85 50.5 139.5t141.5 68.5v2q-79 0 -123.5 41t-44.5 114q0 83 62.5 130.5t173.5 47.5t173.5 -47.5t62.5 -130.5q0 -73 -44.5 -114t-123.5 -41v-2zM165 544q0 -64 39 -100t109 -36t109 36
t39 100q0 63 -39 98t-109 35t-109 -35t-39 -98zM313 63q81 0 126.5 38t45.5 106t-45.5 106t-126.5 38t-126.5 -38t-45.5 -106t45.5 -106t126.5 -38z" />
    <glyph glyph-name="nine" unicode="9" horiz-adv-x="632" 
d="M312 750q264 0 264 -357q0 -190 -73.5 -296.5t-204.5 -106.5q-102 0 -162.5 62.5t-68.5 173.5h84q5 -77 44 -120t103 -43q90 0 140.5 85t50.5 237v82h-2q0 -86 -56 -134.5t-155 -48.5q-107 0 -166.5 58.5t-59.5 163.5q0 114 71.5 179t190.5 65zM312 354q81 0 127 39.5
t46 109.5q0 80 -48 127t-125 47q-82 0 -128 -43.5t-46 -122.5q0 -75 46 -116t128 -41z" />
    <glyph glyph-name="colon" unicode=":" horiz-adv-x="236" 
d="M68 503h100v-95h-100v95zM68 95h100v-95h-100v95z" />
    <glyph glyph-name="semicolon" unicode=";" horiz-adv-x="236" 
d="M69 503h100v-95h-100v95zM68 0v95h100v-81q0 -59 -26.5 -102t-73.5 -60v54q84 22 94 94h-94z" />
    <glyph glyph-name="less" unicode="&#x3c;" horiz-adv-x="475" 
d="M413 409l-364 -156v-2l364 -154v-44l-370 161v77l370 162v-44z" />
    <glyph glyph-name="equal" unicode="=" horiz-adv-x="521" 
d="M69 303v40h383v-40h-383zM69 161v40h383v-40h-383z" />
    <glyph glyph-name="greater" unicode="&#x3e;" horiz-adv-x="475" 
d="M62 453l370 -162v-77l-370 -161v44l364 154v2l-364 156v44z" />
    <glyph glyph-name="question" unicode="?" horiz-adv-x="540" 
d="M29 512q6 113 67.5 175.5t166.5 62.5q108 0 168 -55t60 -151q0 -78 -55.5 -170.5t-153.5 -180.5h-81v2q94 90 147 181t53 163q0 65 -37 101.5t-103 36.5q-67 0 -106.5 -43.5t-43.5 -121.5h-82zM188 95h99v-95h-99v95z" />
    <glyph glyph-name="at" unicode="@" horiz-adv-x="1120" 
d="M675 141q0 17 2 30l3 20h-2q-14 -75 -67 -117.5t-135 -42.5q-79 0 -121.5 48.5t-42.5 134.5q0 131 65.5 211t173.5 80q76 0 117 -33t41 -92q0 -6 -1.5 -18t-1.5 -16h2l27 150h79l-58 -329q-2 -16 -2 -19q0 -27 16.5 -42t45.5 -15q86 0 134 69.5t48 192.5
q0 174 -107 271.5t-299 97.5q-223 0 -348.5 -132t-125.5 -368q0 -190 112 -297t312 -107q146 0 284 58l23 -57q-140 -59 -307 -59q-233 0 -363.5 122.5t-130.5 339.5q0 263 144 410.5t400 147.5q224 0 350 -113t126 -314q0 -151 -70.5 -235.5t-195.5 -84.5q-61 0 -94 28.5
t-33 79.5zM519 96q69 0 115.5 42t63.5 117l3 13q4 32 4 46q0 61 -32 93.5t-93 32.5q-84 0 -134.5 -58t-50.5 -152q0 -63 32 -98.5t92 -35.5z" />
    <glyph glyph-name="A" unicode="A" horiz-adv-x="685" 
d="M579 0l-62 190h-354l-62 -190h-88l254 740h152l253 -740h-93zM186 260h309l-153 472h-2z" />
    <glyph glyph-name="B" unicode="B" horiz-adv-x="676" 
d="M398 412q110 0 171.5 -53.5t61.5 -149.5q0 -98 -64 -153.5t-179 -55.5h-293v740h278q95 0 148 -45.5t53 -125.5q0 -73 -50 -114t-139 -41v-2h13zM485 541q0 61 -37 95t-103 34h-165v-256h165q66 0 103 33.5t37 93.5zM393 70q70 0 110 37t40 102t-39.5 101.5t-110.5 36.5
h-213v-277h213z" />
    <glyph glyph-name="C" unicode="C" horiz-adv-x="712" 
d="M671 271q-20 -132 -99 -206.5t-200 -74.5q-150 0 -234.5 100.5t-84.5 279.5t84.5 279.5t234.5 100.5q121 0 200 -72.5t99 -201.5h-83q-18 95 -75 148t-141 53q-109 0 -169.5 -81t-60.5 -226t60.5 -226t169.5 -81q84 0 141 55t75 153h83z" />
    <glyph glyph-name="D" unicode="D" horiz-adv-x="712" 
d="M95 0v740h214q166 0 259 -98t93 -272t-93 -272t-259 -98h-214zM180 70h135q121 0 189 79t68 221t-68 221t-189 79h-135v-600z" />
    <glyph glyph-name="E" unicode="E" horiz-adv-x="625" 
d="M180 70h402v-70h-487v740h476v-70h-391v-253h356v-70h-356v-277z" />
    <glyph glyph-name="F" unicode="F" horiz-adv-x="564" 
d="M540 670h-360v-260h308v-70h-308v-340h-85v740h445v-70z" />
    <glyph glyph-name="G" unicode="G" horiz-adv-x="735" 
d="M356 383h317v-383h-81v269h-2q0 -131 -68.5 -205t-189.5 -74q-128 0 -203 101t-75 279q0 179 84.5 279.5t235.5 100.5q118 0 195.5 -70.5t97.5 -196.5h-83q-18 91 -74 142.5t-136 51.5q-109 0 -170.5 -81t-61.5 -226t59 -226t165 -81q104 0 163 67.5t61 188.5h-234v64z
" />
    <glyph glyph-name="H" unicode="H" horiz-adv-x="735" 
d="M555 740h85v-740h-85v341h-375v-341h-85v740h85v-329h375v329z" />
    <glyph glyph-name="I" unicode="I" horiz-adv-x="275" 
d="M95 0v740h85v-740h-85z" />
    <glyph glyph-name="J" unicode="J" horiz-adv-x="552" 
d="M378 211q0 -70 -34 -109t-95 -39q-59 0 -97 48.5t-45 133.5h-81q8 -120 66.5 -187.5t154.5 -67.5q102 0 159.5 60t57.5 167v523h-86v-529z" />
    <glyph glyph-name="K" unicode="K" horiz-adv-x="689" 
d="M282 386l411 -386h-117l-396 381h-2v-381h-83v740h83v-351h2l368 351h109z" />
    <glyph glyph-name="L" unicode="L" horiz-adv-x="541" 
d="M180 72h341v-72h-426v740h85v-668z" />
    <glyph glyph-name="M" unicode="M" horiz-adv-x="948" 
d="M842 740l23 -740h-86l-21 732h-2l-212 -732h-154l-202 732h-2l-21 -732h-81l22 740h167l195 -732h3l204 732h167z" />
    <glyph glyph-name="N" unicode="N" horiz-adv-x="735" 
d="M559 740h81v-740h-150l-313 732h-2l3 -732h-83v740h152l312 -732h2z" />
    <glyph glyph-name="O" unicode="O" horiz-adv-x="748" 
d="M374 -10q-151 0 -236 100.5t-85 279.5t85 279.5t236 100.5t236 -100.5t85 -279.5t-85 -279.5t-236 -100.5zM374 63q110 0 171.5 81t61.5 226t-61.5 226t-171.5 81t-171 -81t-61 -226t61 -226t171 -81z" />
    <glyph glyph-name="P" unicode="P" horiz-adv-x="631" 
d="M349 740q117 0 182.5 -59t65.5 -164t-65.5 -164.5t-183.5 -59.5h-168v-293h-85v740h254zM353 363q73 0 114.5 41t41.5 113t-41 112.5t-114 40.5h-174v-307h173z" />
    <glyph glyph-name="Q" unicode="Q" horiz-adv-x="763" 
d="M444 69l288 1v-70h-358q-151 0 -236 99.5t-85 275.5t85 275.5t236 99.5t236 -95.5t85 -259.5q0 -153 -66 -238.5t-185 -85.5v-2zM142 374q0 -145 61.5 -226t170.5 -81q110 0 171.5 81t61.5 226q0 142 -61.5 222.5t-171.5 80.5q-109 0 -170.5 -80t-61.5 -223z" />
    <glyph glyph-name="R" unicode="R" horiz-adv-x="668" 
d="M503 221l132 -221h-96l-185 316h-174v-316h-85v740h264q119 0 186.5 -54t67.5 -150q0 -103 -65.5 -160.5t-183.5 -57.5v-2q38 0 75.5 -25t63.5 -70zM180 383h185q76 0 118 39t42 108q0 66 -42.5 103t-117.5 37h-185v-287z" />
    <glyph glyph-name="S" unicode="S" horiz-adv-x="662" 
d="M329 -10q-127 0 -202.5 69.5t-82.5 193.5h85q6 -90 59 -140t142 -50q94 0 146 37.5t52 104.5q0 27 -7 47.5t-24.5 35t-32.5 24t-45.5 17t-47.5 11t-54 9.5q-40 6 -62 10.5t-57 14t-54.5 22t-40 32t-30 48t-9.5 65.5q0 100 70 154.5t195 54.5q118 0 188.5 -66.5
t77.5 -185.5h-85q-4 85 -52.5 132t-131.5 47t-129 -34.5t-46 -96.5q0 -28 12 -48.5t27 -32.5t45.5 -21.5t51.5 -13.5t61 -10q37 -6 55.5 -9.5t52 -11.5t51.5 -17t42 -25t36.5 -35t21.5 -47.5t9 -63.5q0 -104 -76 -162.5t-211 -58.5z" />
    <glyph glyph-name="T" unicode="T" horiz-adv-x="580" 
d="M561 740v-70h-228v-670h-86v670h-228v70h542z" />
    <glyph glyph-name="U" unicode="U" horiz-adv-x="715" 
d="M547 249v491h81v-485q0 -125 -72 -195t-199 -70t-198.5 70.5t-71.5 194.5v485h86v-491q0 -88 49 -137t137 -49q89 0 138.5 49t49.5 137z" />
    <glyph glyph-name="V" unicode="V" horiz-adv-x="656" 
d="M549 740h89l-231 -740h-158l-230 740h93l217 -732h2z" />
    <glyph glyph-name="W" unicode="W" horiz-adv-x="1013" 
d="M899 740h88l-171 -740h-160l-149 732h-2l-148 -732h-161l-170 740h93l162 -732h2l150 732h149l152 -732h2z" />
    <glyph glyph-name="X" unicode="X" horiz-adv-x="647" 
d="M416 386l217 -386h-107l-201 381h-2l-202 -381h-107l217 386l-193 354h99l186 -351h2l185 351h100z" />
    <glyph glyph-name="Y" unicode="Y" horiz-adv-x="660" 
d="M570 740h95l-374 -740h-95l138 277h-83l-235 463h101l226 -455h2z" />
    <glyph glyph-name="Z" unicode="Z" horiz-adv-x="666" 
d="M51 70h581v-70h-592v163l559 505v2h-546v70h557v-163l-559 -505v-2z" />
    <glyph glyph-name="bracketleft" unicode="[" horiz-adv-x="297" 
d="M278 727h-141v-914h141v-43h-188v1000h188v-43z" />
    <glyph glyph-name="backslash" unicode="\" horiz-adv-x="406" 
d="M71 800l308 -926l-43 -14l-308 926z" />
    <glyph glyph-name="bracketright" unicode="]" horiz-adv-x="297" 
d="M207 770v-1000h-188v43h141v914h-141v43h188z" />
    <glyph glyph-name="asciicircum" unicode="^" horiz-adv-x="520" 
d="M307 720l175 -367h-50l-171 361h-2l-171 -361h-51l175 367h95z" />
    <glyph glyph-name="underscore" unicode="_" horiz-adv-x="549" 
d="M38 -71h473v-39h-473v39z" />
    <glyph glyph-name="grave" unicode="`" horiz-adv-x="228" 
d="M40 731l174 -94l-25 -46l-177 89z" />
    <glyph glyph-name="a" unicode="a" 
d="M444 495h82v-495h-82v163h-2q0 -81 -48.5 -127t-134.5 -46q-99 0 -154.5 68t-55.5 190q0 121 55.5 189t154.5 68q86 0 134.5 -45.5t48.5 -126.5h2v162zM291 58q75 0 117 51t42 139t-42 139t-117 51t-116.5 -50.5t-41.5 -139.5q0 -90 41.5 -140t116.5 -50z" />
    <glyph glyph-name="b" unicode="b" 
d="M344 505q99 0 155 -68t56 -189t-56 -189.5t-155 -68.5q-85 0 -133.5 46t-48.5 127h-2v-163h-82v770h82v-437h2q0 81 48 126.5t134 45.5zM312 58q75 0 117 50t42 140q0 89 -42 139.5t-117 50.5t-117 -51t-42 -139t42 -139t117 -51z" />
    <glyph glyph-name="c" unicode="c" horiz-adv-x="555" 
d="M288 -10q-113 0 -176.5 68.5t-63.5 189.5t63.5 189t176.5 68q91 0 150 -45.5t77 -128.5h-82q-35 107 -145 107q-73 0 -114.5 -50.5t-41.5 -139.5q0 -90 41 -140t115 -50q57 0 95.5 30.5t52.5 86.5h82q-17 -88 -76.5 -136.5t-153.5 -48.5z" />
    <glyph glyph-name="d" unicode="d" 
d="M444 770h82v-770h-82v163h-2q0 -81 -48.5 -127t-134.5 -46q-99 0 -154.5 68t-55.5 190q0 121 55.5 189t154.5 68q86 0 134.5 -45.5t48.5 -126.5h2v437zM291 58q75 0 117 51t42 139t-42 139t-117 51t-116.5 -50.5t-41.5 -139.5q0 -90 41.5 -140t116.5 -50z" />
    <glyph glyph-name="e" unicode="e" horiz-adv-x="554" 
d="M507 247v-12h-378q3 -85 42 -132.5t107 -47.5q60 0 99 31.5t49 87.5h81q-12 -87 -72.5 -135.5t-156.5 -48.5q-108 0 -169 68t-61 189q0 122 61 190t169 68t168.5 -68t60.5 -190zM278 440q-64 0 -103 -43t-45 -121h295q-6 78 -44.5 121t-102.5 43z" />
    <glyph glyph-name="f" unicode="f" horiz-adv-x="370" 
d="M292 712q-54 0 -82.5 -27.5t-28.5 -77.5v-112h175v-61h-169v-434h-82v434h-80v61h152v2q-36 20 -57 53.5t-21 74.5q0 73 46.5 114t129.5 41q57 0 99 -21l-11 -64q-30 17 -71 17z" />
    <glyph glyph-name="g" unicode="g" 
d="M444 495h82v-506q0 -108 -62.5 -168.5t-173.5 -60.5q-100 0 -160 49t-68 135l78 8q5 -59 44.5 -92t105.5 -33q73 0 113.5 41t40.5 115v182h-2q0 -81 -48.5 -127t-134.5 -46q-99 0 -154.5 68t-55.5 189t55.5 188.5t154.5 67.5q86 0 134.5 -45.5t48.5 -126.5h2v162zM291 60
q75 0 117 50.5t42 138.5t-42 138.5t-117 50.5t-116.5 -50t-41.5 -139t41.5 -139t116.5 -50z" />
    <glyph glyph-name="h" unicode="h" horiz-adv-x="582" 
d="M330 505q85 0 132 -52t47 -145v-308h-82v306q0 62 -33 97t-93 35q-67 0 -104 -44t-37 -123v-271h-82v770h82v-445h2q0 85 44.5 132.5t123.5 47.5z" />
    <glyph glyph-name="i" unicode="i" horiz-adv-x="237" 
d="M78 605v105h82v-105h-82zM78 0v495h82v-495h-82z" />
    <glyph glyph-name="j" unicode="j" horiz-adv-x="237" 
d="M78 605v105h82v-105h-82zM78 -230v725h82v-725h-82z" />
    <glyph glyph-name="k" unicode="k" horiz-adv-x="549" 
d="M258 259l288 -259h-109l-275 253h-2v-253h-82v770h82v-508h2l259 233h105z" />
    <glyph glyph-name="l" unicode="l" horiz-adv-x="237" 
d="M78 0v770h82v-770h-82z" />
    <glyph glyph-name="m" unicode="m" horiz-adv-x="912" 
d="M665 505q82 0 128 -50.5t46 -141.5v-313h-82v311q0 60 -32 93.5t-89 33.5q-65 0 -101 -43t-36 -119v-276h-82v311q0 60 -31.5 93.5t-89.5 33.5q-64 0 -100 -42.5t-36 -119.5v-276h-82v495h82v-166h2q0 83 43.5 129.5t121.5 46.5q81 0 126.5 -47.5t45.5 -128.5h2
q0 83 43.5 129.5t120.5 46.5z" />
    <glyph glyph-name="n" unicode="n" horiz-adv-x="582" 
d="M330 505q85 0 132 -52t47 -145v-308h-82v306q0 62 -33 97t-93 35q-67 0 -104 -44t-37 -123v-271h-82v495h82v-170h2q0 85 44.5 132.5t123.5 47.5z" />
    <glyph glyph-name="o" unicode="o" horiz-adv-x="582" 
d="M291 -10q-114 0 -178.5 68.5t-64.5 189.5t64.5 189t178.5 68t178 -68t64 -189q0 -122 -64 -190t-178 -68zM291 58q75 0 117 50t42 140q0 89 -42 139.5t-117 50.5t-117 -50.5t-42 -139.5q0 -90 42 -140t117 -50z" />
    <glyph glyph-name="p" unicode="p" 
d="M344 505q99 0 155 -68t56 -189t-56 -189.5t-155 -68.5q-85 0 -133.5 46t-48.5 127h-2v-393h-82v725h82v-162h2q0 81 48 126.5t134 45.5zM312 57q75 0 117 50.5t42 140.5q0 89 -42 139.5t-117 50.5t-117 -51t-42 -139t42 -139.5t117 -51.5z" />
    <glyph glyph-name="q" unicode="q" 
d="M444 495h82v-725h-82v393h-2q0 -81 -48.5 -127t-134.5 -46q-99 0 -154.5 68t-55.5 190q0 121 55.5 189t154.5 68q86 0 134.5 -45.5t48.5 -126.5h2v162zM291 57q76 0 117.5 50.5t41.5 140.5t-42 140t-117 50t-116.5 -50.5t-41.5 -139.5q0 -90 41.5 -140.5t116.5 -50.5z
" />
    <glyph glyph-name="r" unicode="r" horiz-adv-x="410" 
d="M324 505q47 0 77 -15l-25 -77q-29 17 -73 17q-68 0 -105.5 -49.5t-37.5 -137.5v-243h-82v495h82v-188h2q0 94 42.5 146t119.5 52z" />
    <glyph glyph-name="s" unicode="s" horiz-adv-x="506" 
d="M252 -10q-99 0 -154.5 45t-55.5 125h79q0 -53 34.5 -82.5t96.5 -29.5q61 0 95.5 22.5t34.5 62.5q0 20 -9 35t-19.5 24t-34 16.5t-37 10.5t-44.5 9q-34 6 -52.5 10t-47 14.5t-43.5 23.5t-26.5 35.5t-11.5 52.5q0 65 52 103t143 38q92 0 143.5 -43t51.5 -121h-79
q0 51 -30.5 79t-85.5 28q-54 0 -84.5 -21t-30.5 -58q0 -20 10 -34t31.5 -23t40 -13t51.5 -10q36 -6 55.5 -10.5t49.5 -16t46 -25.5t28.5 -39t12.5 -58q0 -71 -55.5 -110.5t-154.5 -39.5z" />
    <glyph glyph-name="t" unicode="t" horiz-adv-x="375" 
d="M354 434h-169v-289q0 -41 23.5 -64t66.5 -23q39 0 71 16v-64q-43 -20 -97 -20q-69 0 -107.5 39.5t-38.5 110.5v294h-80v61h86v172h82v-42q0 -41 -21 -74.5t-57 -53.5v-2h241v-61z" />
    <glyph glyph-name="u" unicode="u" horiz-adv-x="572" 
d="M412 495h82v-495h-82v170h-2q0 -85 -43 -132.5t-120 -47.5q-82 0 -128 52t-46 145v308h82v-305q0 -63 31.5 -98t89.5 -35q64 0 100 44t36 124v270z" />
    <glyph glyph-name="v" unicode="v" horiz-adv-x="526" 
d="M413 495h88l-159 -495h-158l-159 495h88l149 -489h2z" />
    <glyph glyph-name="w" unicode="w" horiz-adv-x="826" 
d="M714 495h85l-132 -495h-148l-105 489h-2l-105 -489h-148l-132 495h88l121 -489h2l105 489h143l104 -489h2z" />
    <glyph glyph-name="x" unicode="x" horiz-adv-x="535" 
d="M352 259l166 -259h-97l-153 253h-2l-153 -253h-96l165 259l-148 236h94l138 -233h2l139 233h94z" />
    <glyph glyph-name="y" unicode="y" horiz-adv-x="526" 
d="M414 495h88l-234 -725h-88l75 230h-70l-159 495h88l149 -489h2z" />
    <glyph glyph-name="z" unicode="z" horiz-adv-x="518" 
d="M56 62h425v-62h-436v143l406 289v2h-400v61h412v-142l-407 -289v-2z" />
    <glyph glyph-name="braceleft" unicode="{" horiz-adv-x="267" 
d="M163 372q0 -76 -67 -102q67 -28 67 -103v-289q0 -29 17 -47t45 -18v-43q-49 0 -79 28t-30 74v289q0 41 -23 63.5t-64 22.5v45q41 0 64 22.5t23 63.5v290q0 46 30 74t79 28v-43q-28 0 -45 -18t-17 -47v-290z" />
    <glyph glyph-name="bar" unicode="|" horiz-adv-x="227" 
d="M90 770h47v-1000h-47v1000z" />
    <glyph glyph-name="braceright" unicode="}" horiz-adv-x="267" 
d="M151 378q0 -41 23 -63.5t64 -22.5v-45q-41 0 -64 -22.5t-23 -63.5v-289q0 -46 -30 -74t-79 -28v43q28 0 45 18t17 47v289q0 75 67 103q-67 26 -67 102v290q0 29 -17 47t-45 18v43q49 0 79 -28t30 -74v-290z" />
    <glyph glyph-name="asciitilde" unicode="~" horiz-adv-x="590" 
d="M408 191q-48 0 -86 19t-71.5 38t-70.5 19q-32 0 -51.5 -21t-22.5 -59h-39q1 58 31 90t85 32q48 0 86 -19t71.5 -38t70.5 -19q32 0 51.5 21t22.5 59h38q-1 -58 -31 -90t-84 -32z" />
    <glyph glyph-name="uni00A0" unicode="&#xa0;" horiz-adv-x="238" 
 />
    <glyph glyph-name="exclamdown" unicode="&#xa1;" horiz-adv-x="243" 
d="M71 495h100v-94h-100v94zM160 303h-76l-5 -533h86z" />
    <glyph glyph-name="cent" unicode="&#xa2;" horiz-adv-x="558" 
d="M519 301q-16 -82 -69 -130t-137 -54v-117h-46v117q-103 7 -160.5 74.5t-57.5 182.5t57.5 182t160.5 74v110h46v-110q81 -6 134 -51t69 -122h-82q-30 94 -121 106v-378q98 14 124 116h82zM133 374q0 -83 35 -132t99 -57v378q-64 -8 -99 -57.5t-35 -131.5z" />
    <glyph glyph-name="sterling" unicode="&#xa3;" horiz-adv-x="621" 
d="M69 70h510v-70h-532v65q116 76 116 200q0 24 -8 51h-96v44h80q-4 9 -14 32t-15 36t-12 32.5t-10 37t-3 34.5q0 93 63.5 145.5t175.5 52.5q110 0 175 -63t71 -175h-83q-4 78 -47 121.5t-115 43.5q-70 0 -109.5 -33.5t-39.5 -94.5q0 -20 6 -43.5t12.5 -39.5t19 -44.5
t17.5 -41.5h226v-44h-211q7 -28 7 -48q0 -129 -184 -196v-2z" />
    <glyph glyph-name="currency" unicode="&#xa4;" horiz-adv-x="563" 
d="M479 337q0 -77 -36 -129l58 -60l-30 -32l-58 59q-51 -40 -131 -40q-81 0 -130 41l-59 -59l-31 31l59 60q-35 50 -35 129q0 78 35 128l-58 60l30 32l59 -59q49 41 130 41q79 0 130 -40l59 58l31 -31l-59 -60q36 -50 36 -129zM282 175q71 0 110.5 43t39.5 119t-39.5 119
t-110.5 43t-110.5 -43t-39.5 -119t39.5 -119t110.5 -43z" />
    <glyph glyph-name="yen" unicode="&#xa5;" horiz-adv-x="700" 
d="M674 740l-232 -460h150v-43h-172l-30 -59h202v-43h-224l-68 -135h-95l67 135h-157v43h179l29 59h-208v43h143l-233 460h101l226 -455h2l225 455h95z" />
    <glyph glyph-name="brokenbar" unicode="&#xa6;" horiz-adv-x="227" 
d="M90 770h47v-400h-47v400zM90 170h47v-400h-47v400z" />
    <glyph glyph-name="section" unicode="&#xa7;" horiz-adv-x="673" 
d="M393 42q107 0 166 -31t59 -87q0 -78 -73.5 -121t-205.5 -43q-131 0 -208 65t-84 181h85q4 -82 59.5 -127.5t149.5 -45.5q90 0 140 28t50 79q0 48 -50 75t-139 27q-130 0 -202.5 60.5t-72.5 169.5q0 97 58.5 156.5t165.5 70.5v2q-106 0 -165 31t-59 87q0 76 67 118.5
t186 42.5q125 0 198 -62t80 -173h-85q-4 77 -54.5 119.5t-137.5 42.5q-79 0 -123 -27t-44 -76t49.5 -75.5t138.5 -26.5q130 0 203 -60.5t73 -169.5q0 -97 -59 -156.5t-166 -70.5v-3zM154 272q0 -75 49.5 -116.5t138.5 -41.5t139 41.5t50 116.5q0 74 -50 115.5t-139 41.5
q-87 0 -137.5 -41.5t-50.5 -115.5z" />
    <glyph glyph-name="dieresis" unicode="&#xa8;" horiz-adv-x="373" 
d="M68 605v105h79v-105h-79zM227 605v105h78v-105h-78z" />
    <glyph glyph-name="copyright" unicode="&#xa9;" horiz-adv-x="850" 
d="M425 -10q-176 0 -274.5 100.5t-98.5 279.5t98.5 279.5t274.5 100.5t274.5 -100.5t98.5 -279.5t-98.5 -279.5t-274.5 -100.5zM425 31q154 0 240 89.5t86 249.5t-86 249.5t-240 89.5t-240 -89.5t-86 -249.5t86 -249.5t240 -89.5zM428 191q-77 0 -120.5 47.5t-43.5 132.5
t43.5 133t120.5 48q60 0 100 -31.5t54 -89.5h-45q-24 83 -109 83q-56 0 -87.5 -37.5t-31.5 -105.5q0 -67 31.5 -104.5t87.5 -37.5q90 0 112 87h45q-11 -59 -52.5 -92t-104.5 -33z" />
    <glyph glyph-name="ordfeminine" unicode="&#xaa;" horiz-adv-x="414" 
d="M282 740h63v-299h-63v100h-1q0 -50 -28.5 -78t-79.5 -28q-58 0 -91 41t-33 114q0 74 33 115t91 41q51 0 79.5 -28t28.5 -78h1v100zM200 486q40 0 63 28t23 76t-23 76.5t-63 28.5q-41 0 -63.5 -27.5t-22.5 -77.5q0 -49 22.5 -76.5t63.5 -27.5z" />
    <glyph glyph-name="guillemotleft" unicode="&#xab;" horiz-adv-x="430" 
d="M41 250l128 193h50l-126 -193l126 -193h-50zM201 250l128 193h50l-126 -193l126 -193h-50z" />
    <glyph glyph-name="logicalnot" unicode="&#xac;" horiz-adv-x="523" 
d="M68 337h382v-174h-46v135h-336v39z" />
    <glyph glyph-name="uni00AD" unicode="&#xad;" horiz-adv-x="403" 
d="M68 271h268v-39h-268v39z" />
    <glyph glyph-name="registered" unicode="&#xae;" horiz-adv-x="492" 
d="M246 780q93 0 145 -51t52 -141q0 -91 -52 -142t-145 -51q-94 0 -146 51t-52 142q0 90 52 141t146 51zM246 427q77 0 120 42.5t43 118.5t-43 118.5t-120 42.5t-120 -42.5t-43 -118.5t43 -118.5t120 -42.5zM256 566q30 0 44 -22l33 -53h-36l-45 75h-50v-75h-33v195h87
q34 0 52.5 -15.5t18.5 -43.5q0 -59 -71 -59v-2zM202 591h55q35 0 35 35q0 33 -35 33h-55v-68z" />
    <glyph glyph-name="macron" unicode="&#xaf;" horiz-adv-x="326" 
d="M22 688h282v-61h-282v61z" />
    <glyph glyph-name="degree" unicode="&#xb0;" horiz-adv-x="322" 
d="M161 558q-55 0 -86 29t-31 82t31 82t86 29t86 -29t31 -82t-31 -82t-86 -29zM161 607q26 0 41.5 16.5t15.5 45.5t-15.5 45.5t-41.5 16.5q-27 0 -42 -16.5t-15 -45.5t15 -45.5t42 -16.5z" />
    <glyph glyph-name="plusminus" unicode="&#xb1;" horiz-adv-x="507" 
d="M276 337h169v-40h-169v-159h-46v159h-168v40h168v160h46v-160zM62 12v40h383v-40h-383z" />
    <glyph glyph-name="uni00B2" unicode="&#xb2;" horiz-adv-x="371" 
d="M52 410h291v-52h-315v49q110 35 172 101.5t62 151.5q0 44 -21 69t-58 25q-38 0 -61 -28.5t-25 -79.5h-64q5 77 44.5 119.5t106.5 42.5q70 0 109 -39.5t39 -110.5q0 -98 -74 -163.5t-206 -82.5v-2z" />
    <glyph glyph-name="uni00B3" unicode="&#xb3;" horiz-adv-x="369" 
d="M182 609q73 0 114 -33t41 -92q0 -62 -42 -97t-117 -35q-68 0 -108 38.5t-44 106.5h63q2 -43 25.5 -67.5t63.5 -24.5q43 0 67 21t24 58q0 36 -25 57t-70 21h-12v48q44 5 69 25.5t25 51.5q0 32 -20.5 50t-57.5 18q-36 0 -57.5 -24.5t-23.5 -68.5h-63q5 69 44.5 107.5
t105.5 38.5t103 -27t37 -74q0 -45 -38.5 -70.5t-106.5 -25.5v-2h3z" />
    <glyph glyph-name="acute" unicode="&#xb4;" horiz-adv-x="233" 
d="M188 731l28 -51l-177 -89l-25 46z" />
    <glyph glyph-name="paragraph" unicode="&#xb6;" horiz-adv-x="683" 
d="M583 770v-1000h-71v936h-154v-936h-71v936q-86 0 -134 -41.5t-48 -115.5q0 -63 33.5 -103t93.5 -50v-69q-96 9 -150 68t-54 154q0 104 68.5 162.5t190.5 58.5h296z" />
    <glyph glyph-name="periodcentered" unicode="&#xb7;" horiz-adv-x="234" 
d="M67 307h100v-95h-100v95z" />
    <glyph glyph-name="cedilla" unicode="&#xb8;" horiz-adv-x="264" 
d="M109 -240q-48 0 -89 22v43q36 -23 81 -23q36 0 56 14t20 38q0 19 -13 30t-36 11q-36 1 -58 -24l-34 24q37 42 101 42q48 0 75.5 -21.5t27.5 -59.5q0 -46 -34.5 -71t-96.5 -25z" />
    <glyph glyph-name="uni00B9" unicode="&#xb9;" horiz-adv-x="230" 
d="M104 802h66v-444h-66v423h-2q0 -46 -22.5 -72t-62.5 -26v57q41 0 64 16.5t23 45.5z" />
    <glyph glyph-name="ordmasculine" unicode="&#xba;" horiz-adv-x="395" 
d="M198 435q-71 0 -111 41t-40 114q0 74 40 115t111 41t110.5 -41.5t39.5 -114.5t-40 -114t-110 -41zM198 486q40 0 63 27.5t23 76.5t-22.5 77t-63.5 28t-63.5 -27.5t-22.5 -77.5q0 -49 22.5 -76.5t63.5 -27.5z" />
    <glyph glyph-name="guillemotright" unicode="&#xbb;" horiz-adv-x="430" 
d="M229 250l-128 -193h-50l126 193l-126 193h50zM389 250l-128 -193h-50l126 193l-126 193h50z" />
    <glyph glyph-name="onequarter" unicode="&#xbc;" horiz-adv-x="801" 
d="M121 731q0 -46 -22.5 -72t-62.5 -26v57q41 0 64 16.5t23 45.5h66v-444h-66v423h-2zM553 750l33 -25l-478 -735l-33 25zM772 162v-52h-58v-110h-66v110h-213v56l155 278h124v-282h58zM648 438l-151 -274v-2h153v276h-2z" />
    <glyph glyph-name="onehalf" unicode="&#xbd;" horiz-adv-x="797" 
d="M121 731q0 -46 -22.5 -72t-62.5 -26v57q41 0 64 16.5t23 45.5h66v-444h-66v423h-2zM553 750l33 -25l-478 -735l-33 25zM468 52h291v-52h-315v49q110 35 172 101.5t62 151.5q0 44 -21 69t-58 25q-38 0 -61 -28.5t-25 -79.5h-64q5 77 44.5 119.5t106.5 42.5q70 0 109 -39.5
t39 -110.5q0 -98 -74 -163.5t-206 -82.5v-2z" />
    <glyph glyph-name="threequarters" unicode="&#xbe;" horiz-adv-x="934" 
d="M348 434q0 -62 -42 -97t-117 -35q-68 0 -108 38.5t-44 106.5h63q2 -43 25.5 -67.5t63.5 -24.5q43 0 67 21t24 58q0 36 -25 57t-70 21h-12v48q44 5 69 25.5t25 51.5q0 32 -20.5 50t-57.5 18q-36 0 -57.5 -24.5t-23.5 -68.5h-63q5 69 44.5 107.5t105.5 38.5t103 -27t37 -74
q0 -45 -38.5 -70.5t-106.5 -25.5v-2h3q73 0 114 -33t41 -92zM686 750l33 -25l-478 -735l-33 25zM904 162v-52h-58v-110h-66v110h-213v56l155 278h124v-282h58zM780 438l-151 -274v-2h153v276h-2z" />
    <glyph glyph-name="questiondown" unicode="&#xbf;" horiz-adv-x="527" 
d="M342 401h-100v94h100v-94zM501 -2q-6 -112 -68 -175t-167 -63q-107 0 -167.5 55t-60.5 151q0 75 55.5 164t153.5 173h81v-2q-94 -86 -147 -173.5t-53 -156.5q0 -65 37 -101.5t103 -36.5q67 0 107 43.5t44 121.5h82z" />
    <glyph glyph-name="Agrave" unicode="&#xc0;" horiz-adv-x="685" 
d="M407 882l-25 -46l-177 89l28 51zM579 0l-62 190h-354l-62 -190h-88l254 740h152l253 -740h-93zM186 260h309l-153 472h-2z" />
    <glyph glyph-name="Aacute" unicode="&#xc1;" horiz-adv-x="685" 
d="M478 925l-177 -89l-25 46l174 94zM579 0l-62 190h-354l-62 -190h-88l254 740h152l253 -740h-93zM186 260h309l-153 472h-2z" />
    <glyph glyph-name="Acircumflex" unicode="&#xc2;" horiz-adv-x="685" 
d="M341 966l-86 -151h-70l95 160h125l95 -160h-70l-87 151h-2zM579 0l-62 190h-354l-62 -190h-88l254 740h152l253 -740h-93zM186 260h309l-153 472h-2z" />
    <glyph glyph-name="Atilde" unicode="&#xc3;" horiz-adv-x="685" 
d="M267 906q-22 0 -36.5 -18t-16.5 -50h-45q1 62 28 96.5t75 34.5q37 0 80 -31.5t64 -31.5q47 0 53 67h45q-1 -62 -28 -96.5t-76 -34.5q-29 0 -54.5 16t-47.5 32t-41 16zM579 0l-62 190h-354l-62 -190h-88l254 740h152l253 -740h-93zM186 260h309l-153 472h-2z" />
    <glyph glyph-name="Adieresis" unicode="&#xc4;" horiz-adv-x="685" 
d="M302 955v-105h-79v105h79zM460 955v-105h-78v105h78zM579 0l-62 190h-354l-62 -190h-88l254 740h152l253 -740h-93zM186 260h309l-153 472h-2z" />
    <glyph glyph-name="Aring" unicode="&#xc5;" horiz-adv-x="685" 
d="M342 797q-55 0 -86.5 29.5t-31.5 80.5q0 52 31 81t87 29q55 0 86 -29t31 -81q0 -51 -31 -80.5t-86 -29.5zM342 971q-29 0 -45.5 -17t-16.5 -47t16.5 -46.5t45.5 -16.5t45 16.5t16 46.5t-16 47t-45 17zM579 0l-62 190h-354l-62 -190h-88l254 740h152l253 -740h-93z
M186 260h309l-153 472h-2z" />
    <glyph glyph-name="AE" unicode="&#xc6;" horiz-adv-x="1065" 
d="M644 70h378v-70h-457l-36 190h-350l-87 -190h-93l348 740h664v-70h-492l54 -261h403v-70h-388zM211 260h305l-88 472h-2z" />
    <glyph glyph-name="Ccedilla" unicode="&#xc7;" horiz-adv-x="712" 
d="M671 271q-20 -132 -99 -206.5t-200 -74.5q-150 0 -234.5 100.5t-84.5 279.5t84.5 279.5t234.5 100.5q121 0 200 -72.5t99 -201.5h-83q-18 95 -75 148t-141 53q-109 0 -169.5 -81t-60.5 -226t60.5 -226t169.5 -81q84 0 141 55t75 153h83zM349 -240q-48 0 -89 22v43
q36 -23 81 -23q36 0 56 14t20 38q0 19 -13 30t-36 11q-36 1 -58 -24l-34 24q37 42 101 42q48 0 75.5 -21.5t27.5 -59.5q0 -46 -34.5 -71t-96.5 -25z" />
    <glyph glyph-name="Egrave" unicode="&#xc8;" horiz-adv-x="625" 
d="M396 882l-25 -46l-177 89l28 51zM180 70h402v-70h-487v740h476v-70h-391v-253h356v-70h-356v-277z" />
    <glyph glyph-name="Eacute" unicode="&#xc9;" horiz-adv-x="625" 
d="M467 925l-177 -89l-25 46l174 94zM180 70h402v-70h-487v740h476v-70h-391v-253h356v-70h-356v-277z" />
    <glyph glyph-name="Ecircumflex" unicode="&#xca;" horiz-adv-x="625" 
d="M330 966l-86 -151h-70l95 160h125l95 -160h-70l-87 151h-2zM180 70h402v-70h-487v740h476v-70h-391v-253h356v-70h-356v-277z" />
    <glyph glyph-name="Edieresis" unicode="&#xcb;" horiz-adv-x="625" 
d="M291 955v-105h-79v105h79zM449 955v-105h-78v105h78zM180 70h402v-70h-487v740h476v-70h-391v-253h356v-70h-356v-277z" />
    <glyph glyph-name="Igrave" unicode="&#xcc;" horiz-adv-x="275" 
d="M29 976l174 -94l-25 -46l-177 89zM95 0v740h85v-740h-85z" />
    <glyph glyph-name="Iacute" unicode="&#xcd;" horiz-adv-x="275" 
d="M246 976l28 -51l-177 -89l-25 46zM95 0v740h85v-740h-85z" />
    <glyph glyph-name="Icircumflex" unicode="&#xce;" horiz-adv-x="275" 
d="M200 975l95 -160h-70l-87 151h-2l-86 -151h-70l95 160h125zM95 0v740h85v-740h-85z" />
    <glyph glyph-name="Idieresis" unicode="&#xcf;" horiz-adv-x="275" 
d="M19 850v105h79v-105h-79zM178 850v105h78v-105h-78zM95 0v740h85v-740h-85z" />
    <glyph glyph-name="Eth" unicode="&#xd0;" horiz-adv-x="721" 
d="M318 740q166 0 259 -98t93 -272t-93 -272t-259 -98h-214v356h-93v39h93v345h214zM324 70q121 0 189 79t68 221t-68 221t-189 79h-135v-275h145v-39h-145v-286h135z" />
    <glyph glyph-name="Ntilde" unicode="&#xd1;" horiz-adv-x="735" 
d="M293 906q-22 0 -36.5 -18t-16.5 -50h-45q1 62 28 96.5t75 34.5q37 0 80 -31.5t64 -31.5q47 0 53 67h45q-1 -62 -28 -96.5t-76 -34.5q-36 0 -78.5 32t-64.5 32zM559 740h81v-740h-150l-313 732h-2l3 -732h-83v740h152l312 -732h2z" />
    <glyph glyph-name="Ograve" unicode="&#xd2;" horiz-adv-x="748" 
d="M266 976l174 -94l-25 -46l-177 89zM374 -10q-151 0 -236 100.5t-85 279.5t85 279.5t236 100.5t236 -100.5t85 -279.5t-85 -279.5t-236 -100.5zM374 63q110 0 171.5 81t61.5 226t-61.5 226t-171.5 81t-171 -81t-61 -226t61 -226t171 -81z" />
    <glyph glyph-name="Oacute" unicode="&#xd3;" horiz-adv-x="748" 
d="M483 976l28 -51l-177 -89l-25 46zM374 -10q-151 0 -236 100.5t-85 279.5t85 279.5t236 100.5t236 -100.5t85 -279.5t-85 -279.5t-236 -100.5zM374 63q110 0 171.5 81t61.5 226t-61.5 226t-171.5 81t-171 -81t-61 -226t61 -226t171 -81z" />
    <glyph glyph-name="Ocircumflex" unicode="&#xd4;" horiz-adv-x="748" 
d="M374 966l-86 -151h-70l95 160h125l95 -160h-70l-87 151h-2zM374 750q151 0 236 -100.5t85 -279.5t-85 -279.5t-236 -100.5t-236 100.5t-85 279.5t85 279.5t236 100.5zM374 63q110 0 171.5 81t61.5 226t-61.5 226t-171.5 81t-171 -81t-61 -226t61 -226t171 -81z" />
    <glyph glyph-name="Otilde" unicode="&#xd5;" horiz-adv-x="748" 
d="M443 842q-37 0 -79 32t-64 32t-36.5 -18t-16.5 -50h-45q1 62 28 96.5t75 34.5q37 0 80 -31.5t64 -31.5q47 0 53 67h45q-1 -62 -28 -96.5t-76 -34.5zM374 -10q-151 0 -236 100.5t-85 279.5t85 279.5t236 100.5t236 -100.5t85 -279.5t-85 -279.5t-236 -100.5zM374 63
q110 0 171.5 81t61.5 226t-61.5 226t-171.5 81t-171 -81t-61 -226t61 -226t171 -81z" />
    <glyph glyph-name="Odieresis" unicode="&#xd6;" horiz-adv-x="748" 
d="M256 850v105h79v-105h-79zM415 850v105h78v-105h-78zM374 -10q-151 0 -236 100.5t-85 279.5t85 279.5t236 100.5t236 -100.5t85 -279.5t-85 -279.5t-236 -100.5zM374 63q110 0 171.5 81t61.5 226t-61.5 226t-171.5 81t-171 -81t-61 -226t61 -226t171 -81z" />
    <glyph glyph-name="multiply" unicode="&#xd7;" horiz-adv-x="476" 
d="M418 394l-149 -148l149 -148l-32 -32l-149 149l-149 -149l-30 31l148 149l-148 148l30 32l150 -149l148 149z" />
    <glyph glyph-name="Oslash" unicode="&#xd8;" horiz-adv-x="748" 
d="M587 674q108 -100 108 -304q0 -179 -85 -279.5t-236 -100.5q-99 0 -173 46l-44 -73l-42 26l47 77q-109 101 -109 304q0 179 85 279.5t236 100.5q100 0 174 -46l44 73l42 -26zM142 370q0 -151 64 -230l300 495q-54 42 -132 42q-110 0 -171 -81t-61 -226zM374 63
q110 0 171.5 81t61.5 226q0 148 -65 230l-300 -496q55 -41 132 -41z" />
    <glyph glyph-name="Ugrave" unicode="&#xd9;" horiz-adv-x="715" 
d="M250 976l174 -94l-25 -46l-177 89zM547 249v491h81v-485q0 -125 -72 -195t-199 -70t-198.5 70.5t-71.5 194.5v485h86v-491q0 -88 49 -137t137 -49q89 0 138.5 49t49.5 137z" />
    <glyph glyph-name="Uacute" unicode="&#xda;" horiz-adv-x="715" 
d="M467 976l28 -51l-177 -89l-25 46zM547 249v491h81v-485q0 -125 -72 -195t-199 -70t-198.5 70.5t-71.5 194.5v485h86v-491q0 -88 49 -137t137 -49q89 0 138.5 49t49.5 137z" />
    <glyph glyph-name="Ucircumflex" unicode="&#xdb;" horiz-adv-x="715" 
d="M358 966l-86 -151h-70l95 160h125l95 -160h-70l-87 151h-2zM547 740h81v-485q0 -125 -72 -195t-199 -70t-198.5 70.5t-71.5 194.5v485h86v-491q0 -88 49 -137t137 -49q89 0 138.5 49t49.5 137v491z" />
    <glyph glyph-name="Udieresis" unicode="&#xdc;" horiz-adv-x="715" 
d="M240 850v105h79v-105h-79zM399 850v105h78v-105h-78zM547 249v491h81v-485q0 -125 -72 -195t-199 -70t-198.5 70.5t-71.5 194.5v485h86v-491q0 -88 49 -137t137 -49q89 0 138.5 49t49.5 137z" />
    <glyph glyph-name="Yacute" unicode="&#xdd;" horiz-adv-x="660" 
d="M479 925l-177 -89l-25 46l174 94zM570 740h95l-374 -740h-95l138 277h-83l-235 463h101l226 -455h2z" />
    <glyph glyph-name="Thorn" unicode="&#xde;" horiz-adv-x="643" 
d="M349 605q117 0 182.5 -60.5t65.5 -167.5q0 -108 -66 -168.5t-183 -60.5h-168v-148h-85v740h85v-135h169zM353 218q73 0 114.5 42.5t41.5 116.5t-41 116t-114 42h-174v-317h173z" />
    <glyph glyph-name="germandbls" unicode="&#xdf;" horiz-adv-x="622" 
d="M306 457q127 0 198.5 -61t71.5 -169q0 -112 -63 -174.5t-175 -62.5q-54 0 -92 12v64q35 -8 77 -8q80 0 124.5 45.5t44.5 125.5q0 81 -50 126t-139 45h-34v59q80 4 124.5 39t44.5 94q0 56 -34.5 88t-95.5 32q-70 0 -109 -38t-39 -108v-566h-82v563q0 103 60.5 160
t169.5 57q101 0 157.5 -43.5t56.5 -120.5q0 -74 -57 -115.5t-159 -41.5v-2z" />
    <glyph glyph-name="agrave" unicode="&#xe0;" 
d="M357 637l-25 -46l-177 89l28 51zM444 495h82v-495h-82v163h-2q0 -81 -48.5 -127t-134.5 -46q-99 0 -154.5 68t-55.5 190q0 121 55.5 189t154.5 68q86 0 134.5 -45.5t48.5 -126.5h2v162zM291 58q75 0 117 51t42 139t-42 139t-117 51t-116.5 -50.5t-41.5 -139.5
q0 -90 41.5 -140t116.5 -50z" />
    <glyph glyph-name="aacute" unicode="&#xe1;" 
d="M428 680l-177 -89l-25 46l174 94zM444 495h82v-495h-82v163h-2q0 -81 -48.5 -127t-134.5 -46q-99 0 -154.5 68t-55.5 190q0 121 55.5 189t154.5 68q86 0 134.5 -45.5t48.5 -126.5h2v162zM291 58q75 0 117 51t42 139t-42 139t-117 51t-116.5 -50.5t-41.5 -139.5
q0 -90 41.5 -140t116.5 -50z" />
    <glyph glyph-name="acircumflex" unicode="&#xe2;" 
d="M290 721l-86 -151h-70l95 160h125l95 -160h-70l-87 151h-2zM444 495h82v-495h-82v163h-2q0 -81 -48.5 -127t-134.5 -46q-99 0 -154.5 68t-55.5 190q0 121 55.5 189t154.5 68q86 0 134.5 -45.5t48.5 -126.5h2v162zM291 58q75 0 117 51t42 139t-42 139t-117 51
t-116.5 -50.5t-41.5 -139.5q0 -90 41.5 -140t116.5 -50z" />
    <glyph glyph-name="atilde" unicode="&#xe3;" 
d="M217 661q-22 0 -36.5 -18t-16.5 -50h-45q1 62 28 96.5t75 34.5q37 0 80 -31.5t64 -31.5q47 0 53 67h45q-1 -62 -28 -96.5t-76 -34.5q-29 0 -54.5 16t-47.5 32t-41 16zM444 495h82v-495h-82v163h-2q0 -81 -48.5 -127t-134.5 -46q-99 0 -154.5 68t-55.5 190q0 121 55.5 189
t154.5 68q86 0 134.5 -45.5t48.5 -126.5h2v162zM291 58q75 0 117 51t42 139t-42 139t-117 51t-116.5 -50.5t-41.5 -139.5q0 -90 41.5 -140t116.5 -50z" />
    <glyph glyph-name="adieresis" unicode="&#xe4;" 
d="M252 710v-105h-79v105h79zM410 710v-105h-78v105h78zM444 495h82v-495h-82v163h-2q0 -81 -48.5 -127t-134.5 -46q-99 0 -154.5 68t-55.5 190q0 121 55.5 189t154.5 68q86 0 134.5 -45.5t48.5 -126.5h2v162zM291 58q75 0 117 51t42 139t-42 139t-117 51t-116.5 -50.5
t-41.5 -139.5q0 -90 41.5 -140t116.5 -50z" />
    <glyph glyph-name="aring" unicode="&#xe5;" 
d="M292 552q-55 0 -86.5 29.5t-31.5 80.5q0 52 31 81t87 29q55 0 86 -29t31 -81q0 -51 -31 -80.5t-86 -29.5zM292 726q-29 0 -45.5 -17t-16.5 -47t16.5 -46.5t45.5 -16.5t45 16.5t16 46.5t-16 47t-45 17zM444 495h82v-495h-82v163h-2q0 -81 -48.5 -127t-134.5 -46
q-99 0 -154.5 68t-55.5 190q0 121 55.5 189t154.5 68q86 0 134.5 -45.5t48.5 -126.5h2v162zM291 58q75 0 117 51t42 139t-42 139t-117 51t-116.5 -50.5t-41.5 -139.5q0 -90 41.5 -140t116.5 -50z" />
    <glyph glyph-name="ae" unicode="&#xe6;" horiz-adv-x="945" 
d="M897 247v-12h-378q3 -85 42.5 -132.5t107.5 -47.5q59 0 98 31.5t50 87.5h80q-10 -87 -62.5 -135.5t-136.5 -48.5q-80 0 -125 44.5t-45 124.5h-2v-159h-82v163h-2q0 -81 -48.5 -127t-134.5 -46q-99 0 -154.5 68t-55.5 190q0 121 55.5 189t154.5 68q86 0 134.5 -45.5
t48.5 -126.5h2v162h82v-159h2q0 80 45 124.5t125 44.5q94 0 146.5 -68t52.5 -190zM669 440q-65 0 -104 -43t-45 -121h296q-6 78 -44.5 121t-102.5 43zM291 58q75 0 117 51t42 139t-42 139t-117 51t-116.5 -50.5t-41.5 -139.5q0 -90 41.5 -140t116.5 -50z" />
    <glyph glyph-name="ccedilla" unicode="&#xe7;" horiz-adv-x="555" 
d="M288 -10q-113 0 -176.5 68.5t-63.5 189.5t63.5 189t176.5 68q91 0 150 -45.5t77 -128.5h-82q-35 107 -145 107q-73 0 -114.5 -50.5t-41.5 -139.5q0 -90 41 -140t115 -50q57 0 95.5 30.5t52.5 86.5h82q-17 -88 -76.5 -136.5t-153.5 -48.5zM266 -240q-48 0 -89 22v43
q36 -23 81 -23q36 0 56 14t20 38q0 19 -13 30t-36 11q-36 1 -58 -24l-34 24q37 42 101 42q48 0 75.5 -21.5t27.5 -59.5q0 -46 -34.5 -71t-96.5 -25z" />
    <glyph glyph-name="egrave" unicode="&#xe8;" horiz-adv-x="554" 
d="M344 637l-25 -46l-177 89l28 51zM507 247v-12h-378q3 -85 42 -132.5t107 -47.5q60 0 99 31.5t49 87.5h81q-12 -87 -72.5 -135.5t-156.5 -48.5q-108 0 -169 68t-61 189q0 122 61 190t169 68t168.5 -68t60.5 -190zM278 440q-64 0 -103 -43t-45 -121h295q-6 78 -44.5 121
t-102.5 43z" />
    <glyph glyph-name="eacute" unicode="&#xe9;" horiz-adv-x="554" 
d="M414 680l-177 -89l-25 46l174 94zM507 247v-12h-378q3 -85 42 -132.5t107 -47.5q60 0 99 31.5t49 87.5h81q-12 -87 -72.5 -135.5t-156.5 -48.5q-108 0 -169 68t-61 189q0 122 61 190t169 68t168.5 -68t60.5 -190zM278 440q-64 0 -103 -43t-45 -121h295q-6 78 -44.5 121
t-102.5 43z" />
    <glyph glyph-name="ecircumflex" unicode="&#xea;" horiz-adv-x="554" 
d="M277 721l-86 -151h-70l95 160h125l95 -160h-70l-87 151h-2zM507 247v-12h-378q3 -85 42 -132.5t107 -47.5q60 0 99 31.5t49 87.5h81q-12 -87 -72.5 -135.5t-156.5 -48.5q-108 0 -169 68t-61 189q0 122 61 190t169 68t168.5 -68t60.5 -190zM278 440q-64 0 -103 -43
t-45 -121h295q-6 78 -44.5 121t-102.5 43z" />
    <glyph glyph-name="edieresis" unicode="&#xeb;" horiz-adv-x="554" 
d="M238 710v-105h-79v105h79zM396 710v-105h-78v105h78zM507 247v-12h-378q3 -85 42 -132.5t107 -47.5q60 0 99 31.5t49 87.5h81q-12 -87 -72.5 -135.5t-156.5 -48.5q-108 0 -169 68t-61 189q0 122 61 190t169 68t168.5 -68t60.5 -190zM278 440q-64 0 -103 -43t-45 -121h295
q-6 78 -44.5 121t-102.5 43z" />
    <glyph glyph-name="igrave" unicode="&#xec;" horiz-adv-x="237" 
d="M10 731l174 -94l-25 -46l-177 89zM78 495h82v-495h-82v495z" />
    <glyph glyph-name="iacute" unicode="&#xed;" horiz-adv-x="237" 
d="M227 731l28 -51l-177 -89l-25 46zM78 495h82v-495h-82v495z" />
    <glyph glyph-name="icircumflex" unicode="&#xee;" horiz-adv-x="237" 
d="M181 730l95 -160h-70l-87 151h-2l-86 -151h-70l95 160h125zM78 0v495h82v-495h-82z" />
    <glyph glyph-name="idieresis" unicode="&#xef;" horiz-adv-x="237" 
d="M0 605v105h79v-105h-79zM159 605v105h78v-105h-78zM78 495h82v-495h-82v495z" />
    <glyph glyph-name="eth" unicode="&#xf0;" horiz-adv-x="592" 
d="M326 684q111 -69 159 -167.5t48 -245.5q0 -132 -64 -206.5t-178 -74.5q-115 0 -179 67.5t-64 187.5q0 119 56 186t156 67q89 0 140 -60.5t51 -166.5h2q0 143 -44 230t-151 148l-139 -72l-28 45l109 57q-44 19 -109 42l21 59q93 -30 159 -65l125 65l28 -45zM291 58
q75 0 117 49.5t42 137.5t-42 137.5t-117 49.5t-117 -49.5t-42 -137.5t42 -137.5t117 -49.5z" />
    <glyph glyph-name="ntilde" unicode="&#xf1;" horiz-adv-x="582" 
d="M219 661q-22 0 -36.5 -18t-16.5 -50h-45q1 62 28 96.5t75 34.5q37 0 80 -31.5t64 -31.5q47 0 53 67h45q-1 -62 -28 -96.5t-76 -34.5q-29 0 -54.5 16t-47.5 32t-41 16zM330 505q85 0 132 -52t47 -145v-308h-82v306q0 62 -33 97t-93 35q-67 0 -104 -44t-37 -123v-271h-82
v495h82v-170h2q0 85 44.5 132.5t123.5 47.5z" />
    <glyph glyph-name="ograve" unicode="&#xf2;" horiz-adv-x="582" 
d="M182 731l174 -94l-25 -46l-177 89zM291 -10q-114 0 -178.5 68.5t-64.5 189.5t64.5 189t178.5 68t178 -68t64 -189q0 -122 -64 -190t-178 -68zM291 58q75 0 117 50t42 140q0 89 -42 139.5t-117 50.5t-117 -50.5t-42 -139.5q0 -90 42 -140t117 -50z" />
    <glyph glyph-name="oacute" unicode="&#xf3;" horiz-adv-x="582" 
d="M399 731l28 -51l-177 -89l-25 46zM291 -10q-114 0 -178.5 68.5t-64.5 189.5t64.5 189t178.5 68t178 -68t64 -189q0 -122 -64 -190t-178 -68zM291 58q75 0 117 50t42 140q0 89 -42 139.5t-117 50.5t-117 -50.5t-42 -139.5q0 -90 42 -140t117 -50z" />
    <glyph glyph-name="ocircumflex" unicode="&#xf4;" horiz-adv-x="582" 
d="M290 721l-86 -151h-70l95 160h125l95 -160h-70l-87 151h-2zM291 505q114 0 178 -68t64 -189q0 -122 -64 -190t-178 -68t-178.5 68.5t-64.5 189.5t64.5 189t178.5 68zM291 58q75 0 117 50t42 140q0 89 -42 139.5t-117 50.5t-117 -50.5t-42 -139.5q0 -90 42 -140t117 -50z
" />
    <glyph glyph-name="otilde" unicode="&#xf5;" horiz-adv-x="582" 
d="M359 597q-37 0 -79 32t-64 32t-36.5 -18t-16.5 -50h-45q1 62 28 96.5t75 34.5q37 0 80 -31.5t64 -31.5q47 0 53 67h45q-1 -62 -28 -96.5t-76 -34.5zM291 -10q-114 0 -178.5 68.5t-64.5 189.5t64.5 189t178.5 68t178 -68t64 -189q0 -122 -64 -190t-178 -68zM291 58
q75 0 117 50t42 140q0 89 -42 139.5t-117 50.5t-117 -50.5t-42 -139.5q0 -90 42 -140t117 -50z" />
    <glyph glyph-name="odieresis" unicode="&#xf6;" horiz-adv-x="582" 
d="M172 605v105h79v-105h-79zM331 605v105h78v-105h-78zM291 -10q-114 0 -178.5 68.5t-64.5 189.5t64.5 189t178.5 68t178 -68t64 -189q0 -122 -64 -190t-178 -68zM291 58q75 0 117 50t42 140q0 89 -42 139.5t-117 50.5t-117 -50.5t-42 -139.5q0 -90 42 -140t117 -50z" />
    <glyph glyph-name="divide" unicode="&#xf7;" horiz-adv-x="517" 
d="M259 362q-34 0 -34 32q0 33 34 33t34 -33q0 -32 -34 -32zM68 232v40h382v-40h-382zM259 77q-34 0 -34 31q0 34 34 34t34 -34q0 -31 -34 -31z" />
    <glyph glyph-name="oslash" unicode="&#xf8;" horiz-adv-x="582" 
d="M453 452q80 -68 80 -204q0 -122 -64 -190t-178 -68q-71 0 -124 27l-37 -56l-38 25l37 56q-81 70 -81 206q0 121 64.5 189t178.5 68q71 0 124 -28l37 56l38 -24zM132 248q0 -89 41 -139l202 307q-36 22 -84 22q-75 0 -117 -50.5t-42 -139.5zM291 58q75 0 117 50t42 140
q0 89 -41 138l-201 -307q34 -21 83 -21z" />
    <glyph glyph-name="ugrave" unicode="&#xf9;" horiz-adv-x="572" 
d="M349 637l-25 -46l-177 89l28 51zM412 495h82v-495h-82v170h-2q0 -85 -43 -132.5t-120 -47.5q-82 0 -128 52t-46 145v308h82v-305q0 -63 31.5 -98t89.5 -35q64 0 100 44t36 124v270z" />
    <glyph glyph-name="uacute" unicode="&#xfa;" horiz-adv-x="572" 
d="M420 680l-177 -89l-25 46l174 94zM412 495h82v-495h-82v170h-2q0 -85 -43 -132.5t-120 -47.5q-82 0 -128 52t-46 145v308h82v-305q0 -63 31.5 -98t89.5 -35q64 0 100 44t36 124v270z" />
    <glyph glyph-name="ucircumflex" unicode="&#xfb;" horiz-adv-x="572" 
d="M283 721l-86 -151h-70l95 160h125l95 -160h-70l-87 151h-2zM412 495h82v-495h-82v170h-2q0 -85 -43 -132.5t-120 -47.5q-82 0 -128 52t-46 145v308h82v-305q0 -63 31.5 -98t89.5 -35q64 0 100 44t36 124v270z" />
    <glyph glyph-name="udieresis" unicode="&#xfc;" horiz-adv-x="572" 
d="M244 710v-105h-79v105h79zM402 710v-105h-78v105h78zM412 495h82v-495h-82v170h-2q0 -85 -43 -132.5t-120 -47.5q-82 0 -128 52t-46 145v308h82v-305q0 -63 31.5 -98t89.5 -35q64 0 100 44t36 124v270z" />
    <glyph glyph-name="yacute" unicode="&#xfd;" horiz-adv-x="526" 
d="M402 680l-177 -89l-25 46l174 94zM414 495h88l-234 -725h-88l75 230h-70l-159 495h88l149 -489h2z" />
    <glyph glyph-name="thorn" unicode="&#xfe;" 
d="M344 505q99 0 155 -68t56 -189t-56 -189.5t-155 -68.5q-85 0 -133.5 44t-48.5 121h-2v-385h-82v1000h82v-430h2q0 77 48.5 121t133.5 44zM312 57q75 0 117 50.5t42 140.5q0 89 -42 139.5t-117 50.5t-117 -51t-42 -139t42 -139.5t117 -51.5z" />
    <glyph glyph-name="ydieresis" unicode="&#xff;" horiz-adv-x="526" 
d="M226 710v-105h-79v105h79zM384 710v-105h-78v105h78zM414 495h88l-234 -725h-88l75 230h-70l-159 495h88l149 -489h2z" />
    <glyph glyph-name="Amacron" unicode="&#x100;" horiz-adv-x="685" 
d="M483 933v-61h-282v61h282zM579 0l-62 190h-354l-62 -190h-88l254 740h152l253 -740h-93zM186 260h309l-153 472h-2z" />
    <glyph glyph-name="amacron" unicode="&#x101;" 
d="M432 688v-61h-282v61h282zM444 495h82v-495h-82v163h-2q0 -81 -48.5 -127t-134.5 -46q-99 0 -154.5 68t-55.5 190q0 121 55.5 189t154.5 68q86 0 134.5 -45.5t48.5 -126.5h2v162zM291 58q75 0 117 51t42 139t-42 139t-117 51t-116.5 -50.5t-41.5 -139.5q0 -90 41.5 -140
t116.5 -50z" />
    <glyph glyph-name="Abreve" unicode="&#x102;" horiz-adv-x="685" 
d="M342 812q-68 0 -106.5 43t-38.5 120h61q0 -51 22.5 -80t61.5 -29t61.5 29t22.5 80h61q0 -77 -38.5 -120t-106.5 -43zM579 0l-62 190h-354l-62 -190h-88l254 740h152l253 -740h-93zM186 260h309l-153 472h-2z" />
    <glyph glyph-name="abreve" unicode="&#x103;" 
d="M292 567q-68 0 -106.5 43t-38.5 120h61q0 -51 22.5 -80t61.5 -29t61.5 29t22.5 80h61q0 -77 -38.5 -120t-106.5 -43zM444 495h82v-495h-82v163h-2q0 -81 -48.5 -127t-134.5 -46q-99 0 -154.5 68t-55.5 190q0 121 55.5 189t154.5 68q86 0 134.5 -45.5t48.5 -126.5h2v162z
M291 58q75 0 117 51t42 139t-42 139t-117 51t-116.5 -50.5t-41.5 -139.5q0 -90 41.5 -140t116.5 -50z" />
    <glyph glyph-name="Aogonek" unicode="&#x104;" horiz-adv-x="685" 
d="M606 -188q38 0 74 23v-52q-39 -23 -93 -23q-40 0 -62.5 19t-22.5 54q0 51 53 108t107 57v2h-83l-62 190h-354l-62 -190h-88l254 740h152l253 -740h-1q-98 -88 -98 -156q0 -32 33 -32zM186 260h309l-153 472h-2z" />
    <glyph glyph-name="aogonek" unicode="&#x105;" 
d="M461 -188q38 0 74 23v-52q-39 -23 -93 -23q-40 0 -62.5 19t-22.5 54q0 51 53 108t107 57v2h-73v163h-2q0 -81 -48.5 -127t-134.5 -46q-99 0 -154.5 68t-55.5 190q0 121 55.5 189t154.5 68q86 0 134.5 -45.5t48.5 -126.5h2v162h82v-495q-98 -88 -98 -156q0 -32 33 -32z
M291 58q75 0 117 51t42 139t-42 139t-117 51t-116.5 -50.5t-41.5 -139.5q0 -90 41.5 -140t116.5 -50z" />
    <glyph glyph-name="Cacute" unicode="&#x106;" horiz-adv-x="712" 
d="M480 976l28 -51l-177 -89l-25 46zM671 271q-20 -132 -99 -206.5t-200 -74.5q-150 0 -234.5 100.5t-84.5 279.5t84.5 279.5t234.5 100.5q121 0 200 -72.5t99 -201.5h-83q-18 95 -75 148t-141 53q-109 0 -169.5 -81t-60.5 -226t60.5 -226t169.5 -81q84 0 141 55t75 153h83z
" />
    <glyph glyph-name="cacute" unicode="&#x107;" horiz-adv-x="555" 
d="M396 731l28 -51l-177 -89l-25 46zM288 -10q-113 0 -176.5 68.5t-63.5 189.5t63.5 189t176.5 68q91 0 150 -45.5t77 -128.5h-82q-35 107 -145 107q-73 0 -114.5 -50.5t-41.5 -139.5q0 -90 41 -140t115 -50q57 0 95.5 30.5t52.5 86.5h82q-17 -88 -76.5 -136.5t-153.5 -48.5
z" />
    <glyph glyph-name="Cdotaccent" unicode="&#x10a;" horiz-adv-x="712" 
d="M330 850v105h82v-105h-82zM671 271q-20 -132 -99 -206.5t-200 -74.5q-150 0 -234.5 100.5t-84.5 279.5t84.5 279.5t234.5 100.5q121 0 200 -72.5t99 -201.5h-83q-18 95 -75 148t-141 53q-109 0 -169.5 -81t-60.5 -226t60.5 -226t169.5 -81q84 0 141 55t75 153h83z" />
    <glyph glyph-name="cdotaccent" unicode="&#x10b;" horiz-adv-x="555" 
d="M247 605v105h82v-105h-82zM288 -10q-113 0 -176.5 68.5t-63.5 189.5t63.5 189t176.5 68q91 0 150 -45.5t77 -128.5h-82q-35 107 -145 107q-73 0 -114.5 -50.5t-41.5 -139.5q0 -90 41 -140t115 -50q57 0 95.5 30.5t52.5 86.5h82q-17 -88 -76.5 -136.5t-153.5 -48.5z" />
    <glyph glyph-name="Ccaron" unicode="&#x10c;" horiz-adv-x="712" 
d="M309 815l-95 160h70l86 -151h2l87 151h70l-95 -160h-125zM372 63q84 0 141 55t75 153h83q-20 -132 -99 -206.5t-200 -74.5q-150 0 -234.5 100.5t-84.5 279.5t84.5 279.5t234.5 100.5q121 0 200 -72.5t99 -201.5h-83q-18 95 -75 148t-141 53q-109 0 -169.5 -81t-60.5 -226
t60.5 -226t169.5 -81z" />
    <glyph glyph-name="ccaron" unicode="&#x10d;" horiz-adv-x="555" 
d="M226 570l-95 160h70l86 -151h2l87 151h70l-95 -160h-125zM436 175h82q-17 -88 -76.5 -136.5t-153.5 -48.5q-113 0 -176.5 68.5t-63.5 189.5t63.5 189t176.5 68q91 0 150 -45.5t77 -128.5h-82q-35 107 -145 107q-73 0 -114.5 -50.5t-41.5 -139.5q0 -90 41 -140t115 -50
q57 0 95.5 30.5t52.5 86.5z" />
    <glyph glyph-name="Dcaron" unicode="&#x10e;" horiz-adv-x="712" 
d="M248 815l-95 160h70l86 -151h2l87 151h70l-95 -160h-125zM309 740q166 0 259 -98t93 -272t-93 -272t-259 -98h-214v740h214zM315 70q121 0 189 79t68 221t-68 221t-189 79h-135v-600h135z" />
    <glyph glyph-name="dcaron" unicode="&#x10f;" horiz-adv-x="628" 
d="M626 780l64 -17l-55 -207l-57 17zM444 333v437h82v-770h-82v163h-2q0 -81 -48.5 -127t-134.5 -46q-99 0 -154.5 68t-55.5 190q0 121 55.5 189t154.5 68q86 0 134.5 -45.5t48.5 -126.5h2zM291 58q75 0 117 51t42 139t-42 139t-117 51t-116.5 -50.5t-41.5 -139.5
q0 -90 41.5 -140t116.5 -50z" />
    <glyph glyph-name="Dcroat" unicode="&#x110;" horiz-adv-x="721" 
d="M318 740q166 0 259 -98t93 -272t-93 -272t-259 -98h-214v356h-93v39h93v345h214zM324 70q121 0 189 79t68 221t-68 221t-189 79h-135v-275h145v-39h-145v-286h135z" />
    <glyph glyph-name="dcroat" unicode="&#x111;" 
d="M596 657v-39h-70v-618h-82v163h-2q0 -81 -48.5 -127t-134.5 -46q-99 0 -154.5 68t-55.5 190q0 121 55.5 189t154.5 68q86 0 134.5 -45.5t48.5 -126.5h2v285h-171v39h171v113h82v-113h70zM291 58q75 0 117 51t42 139t-42 139t-117 51t-116.5 -50.5t-41.5 -139.5
q0 -90 41.5 -140t116.5 -50z" />
    <glyph glyph-name="Emacron" unicode="&#x112;" horiz-adv-x="625" 
d="M472 933v-61h-282v61h282zM180 70h402v-70h-487v740h476v-70h-391v-253h356v-70h-356v-277z" />
    <glyph glyph-name="emacron" unicode="&#x113;" horiz-adv-x="554" 
d="M419 688v-61h-282v61h282zM507 247v-12h-378q3 -85 42 -132.5t107 -47.5q60 0 99 31.5t49 87.5h81q-12 -87 -72.5 -135.5t-156.5 -48.5q-108 0 -169 68t-61 189q0 122 61 190t169 68t168.5 -68t60.5 -190zM278 440q-64 0 -103 -43t-45 -121h295q-6 78 -44.5 121
t-102.5 43z" />
    <glyph glyph-name="Edotaccent" unicode="&#x116;" horiz-adv-x="625" 
d="M372 955v-105h-82v105h82zM180 70h402v-70h-487v740h476v-70h-391v-253h356v-70h-356v-277z" />
    <glyph glyph-name="edotaccent" unicode="&#x117;" horiz-adv-x="554" 
d="M319 710v-105h-82v105h82zM507 247v-12h-378q3 -85 42 -132.5t107 -47.5q60 0 99 31.5t49 87.5h81q-12 -87 -72.5 -135.5t-156.5 -48.5q-108 0 -169 68t-61 189q0 122 61 190t169 68t168.5 -68t60.5 -190zM278 440q-64 0 -103 -43t-45 -121h295q-6 78 -44.5 121
t-102.5 43z" />
    <glyph glyph-name="Eogonek" unicode="&#x118;" horiz-adv-x="625" 
d="M477 0q-98 -88 -98 -156q0 -32 33 -32q38 0 74 23v-52q-39 -23 -93 -23q-40 0 -62.5 19t-22.5 54q0 51 53 108t107 57v2h-373v740h476v-70h-391v-253h356v-70h-356v-277h402v-70h-105z" />
    <glyph glyph-name="eogonek" unicode="&#x119;" horiz-adv-x="554" 
d="M507 247v-12h-378q3 -85 42 -132.5t107 -47.5q60 0 99 31.5t49 87.5h81q-14 -97 -86 -145q-58 -49 -90.5 -98t-32.5 -87q0 -32 34 -32q37 0 73 23v-52q-39 -23 -92 -23q-41 0 -63 19t-22 54q0 42 49.5 93.5t118.5 86.5v1q-51 -24 -118 -24q-108 0 -169 68t-61 189
q0 122 61 190t169 68t168.5 -68t60.5 -190zM278 440q-64 0 -103 -43t-45 -121h295q-6 78 -44.5 121t-102.5 43z" />
    <glyph glyph-name="Ecaron" unicode="&#x11a;" horiz-adv-x="625" 
d="M269 815l-95 160h70l86 -151h2l87 151h70l-95 -160h-125zM180 70h402v-70h-487v740h476v-70h-391v-253h356v-70h-356v-277z" />
    <glyph glyph-name="ecaron" unicode="&#x11b;" horiz-adv-x="554" 
d="M216 570l-95 160h70l86 -151h2l87 151h70l-95 -160h-125zM507 247v-12h-378q3 -85 42 -132.5t107 -47.5q60 0 99 31.5t49 87.5h81q-12 -87 -72.5 -135.5t-156.5 -48.5q-108 0 -169 68t-61 189q0 122 61 190t169 68t168.5 -68t60.5 -190zM278 440q-64 0 -103 -43t-45 -121
h295q-6 78 -44.5 121t-102.5 43z" />
    <glyph glyph-name="Gbreve" unicode="&#x11e;" horiz-adv-x="735" 
d="M374 812q-68 0 -106.5 43t-38.5 120h61q0 -51 22.5 -80t61.5 -29t61.5 29t22.5 80h61q0 -77 -38.5 -120t-106.5 -43zM356 383h317v-383h-81v269h-2q0 -131 -68.5 -205t-189.5 -74q-128 0 -203 101t-75 279q0 179 84.5 279.5t235.5 100.5q118 0 195.5 -70.5t97.5 -196.5
h-83q-18 91 -74 142.5t-136 51.5q-109 0 -170.5 -81t-61.5 -226t59 -226t165 -81q104 0 163 67.5t61 188.5h-234v64z" />
    <glyph glyph-name="gbreve" unicode="&#x11f;" 
d="M303 567q-68 0 -106.5 43t-38.5 120h61q0 -51 22.5 -80t61.5 -29t61.5 29t22.5 80h61q0 -77 -38.5 -120t-106.5 -43zM444 495h82v-506q0 -108 -62.5 -168.5t-173.5 -60.5q-100 0 -160 49t-68 135l78 8q5 -59 44.5 -92t105.5 -33q73 0 113.5 41t40.5 115v182h-2
q0 -81 -48.5 -127t-134.5 -46q-99 0 -154.5 68t-55.5 189t55.5 188.5t154.5 67.5q86 0 134.5 -45.5t48.5 -126.5h2v162zM291 60q75 0 117 50.5t42 138.5t-42 138.5t-117 50.5t-116.5 -50t-41.5 -139t41.5 -139t116.5 -50z" />
    <glyph glyph-name="Gdotaccent" unicode="&#x120;" horiz-adv-x="735" 
d="M414 955v-105h-82v105h82zM356 383h317v-383h-81v269h-2q0 -131 -68.5 -205t-189.5 -74q-128 0 -203 101t-75 279q0 179 84.5 279.5t235.5 100.5q118 0 195.5 -70.5t97.5 -196.5h-83q-18 91 -74 142.5t-136 51.5q-109 0 -170.5 -81t-61.5 -226t59 -226t165 -81
q104 0 163 67.5t61 188.5h-234v64z" />
    <glyph glyph-name="gdotaccent" unicode="&#x121;" 
d="M344 710v-105h-82v105h82zM444 495h82v-506q0 -108 -62.5 -168.5t-173.5 -60.5q-100 0 -160 49t-68 135l78 8q5 -59 44.5 -92t105.5 -33q73 0 113.5 41t40.5 115v182h-2q0 -81 -48.5 -127t-134.5 -46q-99 0 -154.5 68t-55.5 189t55.5 188.5t154.5 67.5q86 0 134.5 -45.5
t48.5 -126.5h2v162zM291 60q75 0 117 50.5t42 138.5t-42 138.5t-117 50.5t-116.5 -50t-41.5 -139t41.5 -139t116.5 -50z" />
    <glyph glyph-name="Gcommaaccent" unicode="&#x122;" horiz-adv-x="735" 
d="M356 383h317v-383h-81v269h-2q0 -131 -68.5 -205t-189.5 -74q-128 0 -203 101t-75 279q0 179 84.5 279.5t235.5 100.5q118 0 195.5 -70.5t97.5 -196.5h-83q-18 91 -74 142.5t-136 51.5q-109 0 -170.5 -81t-61.5 -226t59 -226t165 -81q104 0 163 67.5t61 188.5h-234v64z
M333 -140v65h83v-57q0 -41 -19.5 -66t-63.5 -42v32q70 18 77 68h-77z" />
    <glyph glyph-name="gcommaaccent" unicode="&#x123;" 
d="M345 673v-70h-83v59q0 37 19.5 59.5t63.5 34.5v-32q-71 -11 -77 -51h77zM444 495h82v-506q0 -108 -62.5 -168.5t-173.5 -60.5q-100 0 -160 49t-68 135l78 8q5 -59 44.5 -92t105.5 -33q73 0 113.5 41t40.5 115v182h-2q0 -81 -48.5 -127t-134.5 -46q-99 0 -154.5 68
t-55.5 189t55.5 188.5t154.5 67.5q86 0 134.5 -45.5t48.5 -126.5h2v162zM291 60q75 0 117 50.5t42 138.5t-42 138.5t-117 50.5t-116.5 -50t-41.5 -139t41.5 -139t116.5 -50z" />
    <glyph glyph-name="Hbar" unicode="&#x126;" horiz-adv-x="737" 
d="M704 604v-39h-63v-565h-85v341h-375v-341h-85v565h-62v39h62v136h85v-136h375v136h85v-136h63zM556 411v154h-375v-154h375z" />
    <glyph glyph-name="hbar" unicode="&#x127;" horiz-adv-x="582" 
d="M330 505q85 0 132 -52t47 -145v-308h-82v306q0 62 -33 97t-93 35q-67 0 -104 -44t-37 -123v-271h-82v618h-71v39h71v113h82v-113h170v-39h-170v-293h2q0 85 44.5 132.5t123.5 47.5z" />
    <glyph glyph-name="Imacron" unicode="&#x12a;" horiz-adv-x="275" 
d="M-3 933h282v-61h-282v61zM95 0v740h85v-740h-85z" />
    <glyph glyph-name="imacron" unicode="&#x12b;" horiz-adv-x="237" 
d="M-22 688h282v-61h-282v61zM78 495h82v-495h-82v495z" />
    <glyph glyph-name="Iogonek" unicode="&#x12e;" horiz-adv-x="275" 
d="M115 -188q38 0 74 23v-52q-39 -23 -93 -23q-40 0 -62.5 19t-22.5 54q0 51 53 108t107 57v2h-76v740h85v-740q-98 -88 -98 -156q0 -32 33 -32z" />
    <glyph glyph-name="iogonek" unicode="&#x12f;" horiz-adv-x="237" 
d="M160 710v-105h-82v105h82zM94 -188q38 0 74 23v-52q-39 -23 -93 -23q-40 0 -62.5 19t-22.5 54q0 51 53 108t107 57v2h-72v495h82v-495h-1q-98 -88 -98 -156q0 -32 33 -32z" />
    <glyph glyph-name="Idotaccent" unicode="&#x130;" horiz-adv-x="275" 
d="M96 850v105h82v-105h-82zM95 0v740h85v-740h-85z" />
    <glyph glyph-name="dotlessi" unicode="&#x131;" horiz-adv-x="237" 
d="M78 495h82v-495h-82v495z" />
    <glyph glyph-name="Kcommaaccent" unicode="&#x136;" horiz-adv-x="689" 
d="M282 386l411 -386h-117l-396 381h-2v-381h-83v740h83v-351h2l368 351h109zM317 -140v65h83v-57q0 -41 -19.5 -66t-63.5 -42v32q70 18 77 68h-77z" />
    <glyph glyph-name="kcommaaccent" unicode="&#x137;" horiz-adv-x="549" 
d="M258 259l288 -259h-109l-275 253h-2v-253h-82v770h82v-508h2l259 233h105zM232 -140v65h83v-57q0 -41 -19.5 -66t-63.5 -42v32q70 18 77 68h-77z" />
    <glyph glyph-name="Lacute" unicode="&#x139;" horiz-adv-x="541" 
d="M274 925l-177 -89l-25 46l174 94zM180 72h341v-72h-426v740h85v-668z" />
    <glyph glyph-name="lacute" unicode="&#x13a;" horiz-adv-x="237" 
d="M227 1006l28 -51l-177 -89l-25 46zM78 0v770h82v-770h-82z" />
    <glyph glyph-name="Lcommaaccent" unicode="&#x13b;" horiz-adv-x="541" 
d="M180 72h341v-72h-426v740h85v-668zM231 -140v65h83v-57q0 -41 -19.5 -66t-63.5 -42v32q70 18 77 68h-77z" />
    <glyph glyph-name="lcommaaccent" unicode="&#x13c;" horiz-adv-x="237" 
d="M160 770v-770h-82v770h82zM78 -75h83v-57q0 -41 -19.5 -66t-63.5 -42v32q70 18 77 68h-77v65z" />
    <glyph glyph-name="Lcaron" unicode="&#x13d;" horiz-adv-x="544" 
d="M375 733l-55 -207l-58 17l49 207zM180 72h341v-72h-426v740h85v-668z" />
    <glyph glyph-name="lcaron" unicode="&#x13e;" horiz-adv-x="277" 
d="M260 780l64 -17l-56 -207l-57 17zM78 0v770h82v-770h-82z" />
    <glyph glyph-name="Lslash" unicode="&#x141;" horiz-adv-x="547" 
d="M186 72h341v-72h-426v309l-68 -44v47l68 44v384h85v-331l162 104v-47l-162 -104v-290z" />
    <glyph glyph-name="lslash" unicode="&#x142;" horiz-adv-x="288" 
d="M250 505v-49l-64 -51v-405h-82v345l-65 -52v50l65 52v375h82v-316z" />
    <glyph glyph-name="Nacute" unicode="&#x143;" horiz-adv-x="735" 
d="M504 925l-177 -89l-25 46l174 94zM559 740h81v-740h-150l-313 732h-2l3 -732h-83v740h152l312 -732h2z" />
    <glyph glyph-name="nacute" unicode="&#x144;" horiz-adv-x="582" 
d="M430 680l-177 -89l-25 46l174 94zM330 505q85 0 132 -52t47 -145v-308h-82v306q0 62 -33 97t-93 35q-67 0 -104 -44t-37 -123v-271h-82v495h82v-170h2q0 85 44.5 132.5t123.5 47.5z" />
    <glyph glyph-name="Ncommaaccent" unicode="&#x145;" horiz-adv-x="735" 
d="M559 740h81v-740h-150l-313 732h-2l3 -732h-83v740h152l312 -732h2zM327 -140v65h83v-57q0 -41 -19.5 -66t-63.5 -42v32q70 18 77 68h-77z" />
    <glyph glyph-name="ncommaaccent" unicode="&#x146;" horiz-adv-x="582" 
d="M330 505q85 0 132 -52t47 -145v-308h-82v306q0 62 -33 97t-93 35q-67 0 -104 -44t-37 -123v-271h-82v495h82v-170h2q0 85 44.5 132.5t123.5 47.5zM253 -140v65h83v-57q0 -41 -19.5 -66t-63.5 -42v32q70 18 77 68h-77z" />
    <glyph glyph-name="Ncaron" unicode="&#x147;" horiz-adv-x="735" 
d="M306 815l-95 160h70l86 -151h2l87 151h70l-95 -160h-125zM559 740h81v-740h-150l-313 732h-2l3 -732h-83v740h152l312 -732h2z" />
    <glyph glyph-name="ncaron" unicode="&#x148;" horiz-adv-x="582" 
d="M231 570l-95 160h70l86 -151h2l87 151h70l-95 -160h-125zM330 505q85 0 132 -52t47 -145v-308h-82v306q0 62 -33 97t-93 35q-67 0 -104 -44t-37 -123v-271h-82v495h82v-170h2q0 85 44.5 132.5t123.5 47.5z" />
    <glyph glyph-name="Eng" unicode="&#x14a;" horiz-adv-x="735" 
d="M559 740h81v-758q0 -104 -55 -163t-153 -59q-54 0 -98 21l23 66q30 -14 69 -14q61 0 95 37t34 104v26h-65l-313 732h-2l3 -732h-83v740h152l312 -732h2z" />
    <glyph glyph-name="eng" unicode="&#x14b;" horiz-adv-x="582" 
d="M330 505q85 0 132 -52t47 -145v-363q0 -88 -46.5 -136.5t-129.5 -48.5q-65 0 -109 26l24 59q34 -17 78 -17q50 0 75.5 30t25.5 85v363q0 62 -33 97t-93 35q-67 0 -104 -44t-37 -123v-271h-82v495h82v-170h2q0 85 44.5 132.5t123.5 47.5z" />
    <glyph glyph-name="Omacron" unicode="&#x14c;" horiz-adv-x="748" 
d="M234 933h282v-61h-282v61zM374 -10q-151 0 -236 100.5t-85 279.5t85 279.5t236 100.5t236 -100.5t85 -279.5t-85 -279.5t-236 -100.5zM374 63q110 0 171.5 81t61.5 226t-61.5 226t-171.5 81t-171 -81t-61 -226t61 -226t171 -81z" />
    <glyph glyph-name="omacron" unicode="&#x14d;" horiz-adv-x="582" 
d="M150 688h282v-61h-282v61zM291 -10q-114 0 -178.5 68.5t-64.5 189.5t64.5 189t178.5 68t178 -68t64 -189q0 -122 -64 -190t-178 -68zM291 58q75 0 117 50t42 140q0 89 -42 139.5t-117 50.5t-117 -50.5t-42 -139.5q0 -90 42 -140t117 -50z" />
    <glyph glyph-name="Ohungarumlaut" unicode="&#x150;" horiz-adv-x="748" 
d="M406 992l44 -41l-148 -133l-37 38zM543 992l44 -41l-148 -133l-37 38zM374 -10q-151 0 -236 100.5t-85 279.5t85 279.5t236 100.5t236 -100.5t85 -279.5t-85 -279.5t-236 -100.5zM374 63q110 0 171.5 81t61.5 226t-61.5 226t-171.5 81t-171 -81t-61 -226t61 -226t171 -81
z" />
    <glyph glyph-name="ohungarumlaut" unicode="&#x151;" horiz-adv-x="582" 
d="M322 747l44 -41l-148 -133l-37 38zM459 747l44 -41l-148 -133l-37 38zM291 -10q-114 0 -178.5 68.5t-64.5 189.5t64.5 189t178.5 68t178 -68t64 -189q0 -122 -64 -190t-178 -68zM291 58q75 0 117 50t42 140q0 89 -42 139.5t-117 50.5t-117 -50.5t-42 -139.5
q0 -90 42 -140t117 -50z" />
    <glyph glyph-name="OE" unicode="&#x152;" horiz-adv-x="1138" 
d="M697 70h398v-70h-484v255h-2q0 -124 -70.5 -194.5t-195.5 -70.5q-136 0 -212.5 101t-76.5 279t76.5 279t212.5 101q125 0 195.5 -70.5t70.5 -194.5h2v255h473v-70h-387v-253h352v-70h-352v-277zM375 63q114 0 178.5 82.5t64.5 224.5t-64.5 224.5t-178.5 82.5
q-110 0 -171.5 -81.5t-61.5 -225.5q0 -145 61.5 -226t171.5 -81z" />
    <glyph glyph-name="oe" unicode="&#x153;" horiz-adv-x="951" 
d="M904 247v-12h-378q3 -86 42 -133t107 -47q60 0 99 31.5t49 87.5h81q-12 -87 -72.5 -135.5t-156.5 -48.5q-92 0 -150 49t-75 139h-2q0 -89 -50 -138.5t-139 -49.5q-99 0 -154.5 68t-55.5 190q0 121 55.5 189t154.5 68q89 0 139 -49.5t50 -137.5h2q17 90 75 138.5t150 48.5
q108 0 168.5 -68t60.5 -190zM675 440q-64 0 -103 -43t-45 -121h295q-6 78 -44.5 121t-102.5 43zM291 58q75 0 117 51t42 139t-42 139t-117 51t-116.5 -50.5t-41.5 -139.5q0 -90 41.5 -140t116.5 -50z" />
    <glyph glyph-name="Racute" unicode="&#x154;" horiz-adv-x="668" 
d="M448 925l-177 -89l-25 46l174 94zM503 221l132 -221h-96l-185 316h-174v-316h-85v740h264q119 0 186.5 -54t67.5 -150q0 -103 -65.5 -160.5t-183.5 -57.5v-2q38 0 75.5 -25t63.5 -70zM180 383h185q76 0 118 39t42 108q0 66 -42.5 103t-117.5 37h-185v-287z" />
    <glyph glyph-name="racute" unicode="&#x155;" horiz-adv-x="410" 
d="M337 680l-177 -89l-25 46l174 94zM324 505q47 0 77 -15l-25 -77q-29 17 -73 17q-68 0 -105.5 -49.5t-37.5 -137.5v-243h-82v495h82v-188h2q0 94 42.5 146t119.5 52z" />
    <glyph glyph-name="Rcommaaccent" unicode="&#x156;" horiz-adv-x="668" 
d="M503 221l132 -221h-96l-185 316h-174v-316h-85v740h264q119 0 186.5 -54t67.5 -150q0 -103 -65.5 -160.5t-183.5 -57.5v-2q38 0 75.5 -25t63.5 -70zM180 383h185q76 0 118 39t42 108q0 66 -42.5 103t-117.5 37h-185v-287zM301 -140v65h83v-57q0 -41 -19.5 -66t-63.5 -42
v32q70 18 77 68h-77z" />
    <glyph glyph-name="rcommaaccent" unicode="&#x157;" horiz-adv-x="410" 
d="M324 505q47 0 77 -15l-25 -77q-29 17 -73 17q-68 0 -105.5 -49.5t-37.5 -137.5v-243h-82v495h82v-188h2q0 94 42.5 146t119.5 52zM79 -140v65h83v-57q0 -41 -19.5 -66t-63.5 -42v32q70 18 77 68h-77z" />
    <glyph glyph-name="Rcaron" unicode="&#x158;" horiz-adv-x="668" 
d="M250 815l-95 160h70l86 -151h2l87 151h70l-95 -160h-125zM503 221l132 -221h-96l-185 316h-174v-316h-85v740h264q119 0 186.5 -54t67.5 -150q0 -103 -65.5 -160.5t-183.5 -57.5v-2q38 0 75.5 -25t63.5 -70zM180 383h185q76 0 118 39t42 108q0 66 -42.5 103t-117.5 37
h-185v-287z" />
    <glyph glyph-name="rcaron" unicode="&#x159;" horiz-adv-x="410" 
d="M139 570l-95 160h70l86 -151h2l87 151h70l-95 -160h-125zM324 505q47 0 77 -15l-25 -77q-29 17 -73 17q-68 0 -105.5 -49.5t-37.5 -137.5v-243h-82v495h82v-188h2q0 94 42.5 146t119.5 52z" />
    <glyph glyph-name="Sacute" unicode="&#x15a;" horiz-adv-x="662" 
d="M437 976l28 -51l-177 -89l-25 46zM329 -10q-127 0 -202.5 69.5t-82.5 193.5h85q6 -90 59 -140t142 -50q94 0 146 37.5t52 104.5q0 27 -7 47.5t-24.5 35t-32.5 24t-45.5 17t-47.5 11t-54 9.5q-40 6 -62 10.5t-57 14t-54.5 22t-40 32t-30 48t-9.5 65.5q0 100 70 154.5
t195 54.5q118 0 188.5 -66.5t77.5 -185.5h-85q-4 85 -52.5 132t-131.5 47t-129 -34.5t-46 -96.5q0 -28 12 -48.5t27 -32.5t45.5 -21.5t51.5 -13.5t61 -10q37 -6 55.5 -9.5t52 -11.5t51.5 -17t42 -25t36.5 -35t21.5 -47.5t9 -63.5q0 -104 -76 -162.5t-211 -58.5z" />
    <glyph glyph-name="sacute" unicode="&#x15b;" horiz-adv-x="506" 
d="M360 731l28 -51l-177 -89l-25 46zM252 -10q-99 0 -154.5 45t-55.5 125h79q0 -53 34.5 -82.5t96.5 -29.5q61 0 95.5 22.5t34.5 62.5q0 20 -9 35t-19.5 24t-34 16.5t-37 10.5t-44.5 9q-34 6 -52.5 10t-47 14.5t-43.5 23.5t-26.5 35.5t-11.5 52.5q0 65 52 103t143 38
q92 0 143.5 -43t51.5 -121h-79q0 51 -30.5 79t-85.5 28q-54 0 -84.5 -21t-30.5 -58q0 -20 10 -34t31.5 -23t40 -13t51.5 -10q36 -6 55.5 -10.5t49.5 -16t46 -25.5t28.5 -39t12.5 -58q0 -71 -55.5 -110.5t-154.5 -39.5z" />
    <glyph glyph-name="Scedilla" unicode="&#x15e;" horiz-adv-x="662" 
d="M329 -10q-127 0 -202.5 69.5t-82.5 193.5h85q6 -90 59 -140t142 -50q94 0 146 37.5t52 104.5q0 27 -7 47.5t-24.5 35t-32.5 24t-45.5 17t-47.5 11t-54 9.5q-40 6 -62 10.5t-57 14t-54.5 22t-40 32t-30 48t-9.5 65.5q0 100 70 154.5t195 54.5q118 0 188.5 -66.5
t77.5 -185.5h-85q-4 85 -52.5 132t-131.5 47t-129 -34.5t-46 -96.5q0 -28 12 -48.5t27 -32.5t45.5 -21.5t51.5 -13.5t61 -10q37 -6 55.5 -9.5t52 -11.5t51.5 -17t42 -25t36.5 -35t21.5 -47.5t9 -63.5q0 -104 -76 -162.5t-211 -58.5zM307 -240q-48 0 -89 22v43q36 -23 81 -23
q36 0 56 14t20 38q0 19 -13 30t-36 11q-36 1 -58 -24l-34 24q37 42 101 42q48 0 75.5 -21.5t27.5 -59.5q0 -46 -34.5 -71t-96.5 -25z" />
    <glyph glyph-name="scedilla" unicode="&#x15f;" horiz-adv-x="506" 
d="M252 -10q-99 0 -154.5 45t-55.5 125h79q0 -53 34.5 -82.5t96.5 -29.5q61 0 95.5 22.5t34.5 62.5q0 20 -9 35t-19.5 24t-34 16.5t-37 10.5t-44.5 9q-34 6 -52.5 10t-47 14.5t-43.5 23.5t-26.5 35.5t-11.5 52.5q0 65 52 103t143 38q92 0 143.5 -43t51.5 -121h-79
q0 51 -30.5 79t-85.5 28q-54 0 -84.5 -21t-30.5 -58q0 -20 10 -34t31.5 -23t40 -13t51.5 -10q36 -6 55.5 -10.5t49.5 -16t46 -25.5t28.5 -39t12.5 -58q0 -71 -55.5 -110.5t-154.5 -39.5zM228 -240q-48 0 -89 22v43q36 -23 81 -23q36 0 56 14t20 38q0 19 -13 30t-36 11
q-36 1 -58 -24l-34 24q37 42 101 42q48 0 75.5 -21.5t27.5 -59.5q0 -46 -34.5 -71t-96.5 -25z" />
    <glyph glyph-name="Scaron" unicode="&#x160;" horiz-adv-x="662" 
d="M267 815l-95 160h70l86 -151h2l87 151h70l-95 -160h-125zM348 420q37 -6 55.5 -9.5t52 -11.5t51.5 -17t42 -25t36.5 -35t21.5 -47.5t9 -63.5q0 -104 -76 -162.5t-211 -58.5q-127 0 -202.5 69.5t-82.5 193.5h85q6 -90 59 -140t142 -50q94 0 146 37.5t52 104.5
q0 27 -7 47.5t-24.5 35t-32.5 24t-45.5 17t-47.5 11t-54 9.5q-40 6 -62 10.5t-57 14t-54.5 22t-40 32t-30 48t-9.5 65.5q0 100 70 154.5t195 54.5q118 0 188.5 -66.5t77.5 -185.5h-85q-4 85 -52.5 132t-131.5 47t-129 -34.5t-46 -96.5q0 -28 12 -48.5t27 -32.5t45.5 -21.5
t51.5 -13.5t61 -10z" />
    <glyph glyph-name="scaron" unicode="&#x161;" horiz-adv-x="506" 
d="M190 570l-95 160h70l86 -151h2l87 151h70l-95 -160h-125zM270 289q36 -6 55.5 -10.5t49.5 -16t46 -25.5t28.5 -39t12.5 -58q0 -71 -55.5 -110.5t-154.5 -39.5t-154.5 45t-55.5 125h79q0 -53 34.5 -82.5t96.5 -29.5q61 0 95.5 22.5t34.5 62.5q0 20 -9 35t-19.5 24
t-34 16.5t-37 10.5t-44.5 9q-34 6 -52.5 10t-47 14.5t-43.5 23.5t-26.5 35.5t-11.5 52.5q0 65 52 103t143 38q92 0 143.5 -43t51.5 -121h-79q0 51 -30.5 79t-85.5 28q-54 0 -84.5 -21t-30.5 -58q0 -20 10 -34t31.5 -23t40 -13t51.5 -10z" />
    <glyph glyph-name="uni0162" unicode="&#x162;" horiz-adv-x="580" 
d="M19 740h542v-70h-228v-670h-86v670h-228v70zM296 -63q48 0 75.5 -21.5t27.5 -59.5q0 -46 -34.5 -71t-96.5 -25q-48 0 -89 22v43q36 -23 81 -23q36 0 56 14t20 38q0 19 -13 30t-36 11q-36 1 -58 -24l-34 24q37 42 101 42z" />
    <glyph glyph-name="uni0163" unicode="&#x163;" horiz-adv-x="375" 
d="M354 434h-169v-289q0 -41 23.5 -64t66.5 -23q39 0 71 16v-64q-43 -20 -97 -20q-69 0 -107.5 39.5t-38.5 110.5v294h-80v61h86v172h82v-42q0 -41 -21 -74.5t-57 -53.5v-2h241v-61zM194 -63q48 0 75.5 -21.5t27.5 -59.5q0 -46 -34.5 -71t-96.5 -25q-48 0 -89 22v43
q36 -23 81 -23q36 0 56 14t20 38q0 19 -13 30t-36 11q-36 1 -58 -24l-34 24q37 42 101 42z" />
    <glyph glyph-name="Tcaron" unicode="&#x164;" horiz-adv-x="580" 
d="M228 815l-95 160h70l86 -151h2l87 151h70l-95 -160h-125zM561 740v-70h-228v-670h-86v670h-228v70h542z" />
    <glyph glyph-name="tcaron" unicode="&#x165;" horiz-adv-x="375" 
d="M357 763l-56 -207l-57 17l49 207zM113 497v-2h241v-61h-169v-289q0 -41 23.5 -64t66.5 -23q39 0 71 16v-64q-43 -20 -97 -20q-69 0 -107.5 39.5t-38.5 110.5v294h-80v61h86v172h82v-42q0 -41 -21 -74.5t-57 -53.5z" />
    <glyph glyph-name="Tbar" unicode="&#x166;" horiz-adv-x="586" 
d="M564 670h-228v-283h119v-39h-119v-348h-86v348h-118v39h118v283h-228v70h542v-70z" />
    <glyph glyph-name="tbar" unicode="&#x167;" horiz-adv-x="389" 
d="M362 434h-169v-163h169v-39h-169v-87q0 -41 23.5 -64t66.5 -23q39 0 71 16v-64q-43 -20 -97 -20q-69 0 -107.5 39.5t-38.5 110.5v92h-80v39h80v163h-80v61h86v172h82v-42q0 -41 -21 -74.5t-57 -53.5v-2h241v-61z" />
    <glyph glyph-name="Umacron" unicode="&#x16a;" horiz-adv-x="715" 
d="M218 933h282v-61h-282v61zM547 249v491h81v-485q0 -125 -72 -195t-199 -70t-198.5 70.5t-71.5 194.5v485h86v-491q0 -88 49 -137t137 -49q89 0 138.5 49t49.5 137z" />
    <glyph glyph-name="umacron" unicode="&#x16b;" horiz-adv-x="572" 
d="M425 688v-61h-282v61h282zM412 495h82v-495h-82v170h-2q0 -85 -43 -132.5t-120 -47.5q-82 0 -128 52t-46 145v308h82v-305q0 -63 31.5 -98t89.5 -35q64 0 100 44t36 124v270z" />
    <glyph glyph-name="Uring" unicode="&#x16e;" horiz-adv-x="715" 
d="M359 797q-55 0 -86.5 29.5t-31.5 80.5q0 52 31 81t87 29q55 0 86 -29t31 -81q0 -51 -31 -80.5t-86 -29.5zM359 844q29 0 45 16.5t16 46.5t-16 47t-45 17t-45.5 -17t-16.5 -47t16.5 -46.5t45.5 -16.5zM547 249v491h81v-485q0 -125 -72 -195t-199 -70t-198.5 70.5
t-71.5 194.5v485h86v-491q0 -88 49 -137t137 -49q89 0 138.5 49t49.5 137z" />
    <glyph glyph-name="uring" unicode="&#x16f;" horiz-adv-x="572" 
d="M284 552q-55 0 -86.5 29.5t-31.5 80.5q0 52 31 81t87 29q55 0 86 -29t31 -81q0 -51 -31 -80.5t-86 -29.5zM284 726q-29 0 -45.5 -17t-16.5 -47t16.5 -46.5t45.5 -16.5t45 16.5t16 46.5t-16 47t-45 17zM412 495h82v-495h-82v170h-2q0 -85 -43 -132.5t-120 -47.5
q-82 0 -128 52t-46 145v308h82v-305q0 -63 31.5 -98t89.5 -35q64 0 100 44t36 124v270z" />
    <glyph glyph-name="Uhungarumlaut" unicode="&#x170;" horiz-adv-x="715" 
d="M390 992l44 -41l-148 -133l-37 38zM527 992l44 -41l-148 -133l-37 38zM547 249v491h81v-485q0 -125 -72 -195t-199 -70t-198.5 70.5t-71.5 194.5v485h86v-491q0 -88 49 -137t137 -49q89 0 138.5 49t49.5 137z" />
    <glyph glyph-name="uhungarumlaut" unicode="&#x171;" horiz-adv-x="572" 
d="M359 706l-148 -133l-37 38l141 136zM348 573l-37 38l141 136l44 -41zM412 225v270h82v-495h-82v170h-2q0 -85 -43 -132.5t-120 -47.5q-82 0 -128 52t-46 145v308h82v-305q0 -63 31.5 -98t89.5 -35q64 0 100 44t36 124z" />
    <glyph glyph-name="Uogonek" unicode="&#x172;" horiz-adv-x="715" 
d="M547 740h81v-485q0 -101 -48 -167t-136 -88h1q-94 -88 -94 -156q0 -32 33 -32q38 0 74 23v-52q-39 -23 -93 -23q-40 0 -62.5 19t-22.5 54q0 38 44 84.5t107 77.5v2q-32 -7 -74 -7q-127 0 -198.5 70.5t-71.5 194.5v485h86v-491q0 -88 49 -137t137 -49q89 0 138.5 49
t49.5 137v491z" />
    <glyph glyph-name="uogonek" unicode="&#x173;" horiz-adv-x="572" 
d="M429 -188q38 0 74 23v-52q-39 -23 -93 -23q-40 0 -62.5 19t-22.5 54q0 51 53 108t107 57v2h-73v170h-2q0 -85 -43 -132.5t-120 -47.5q-82 0 -128 52t-46 145v308h82v-305q0 -63 31.5 -98t89.5 -35q64 0 100 44t36 124v270h82v-495q-98 -88 -98 -156q0 -32 33 -32z" />
    <glyph glyph-name="Wcircumflex" unicode="&#x174;" horiz-adv-x="1013" 
d="M507 966l-86 -151h-70l95 160h125l95 -160h-70l-87 151h-2zM899 740h88l-171 -740h-160l-149 732h-2l-148 -732h-161l-170 740h93l162 -732h2l150 732h149l152 -732h2z" />
    <glyph glyph-name="wcircumflex" unicode="&#x175;" horiz-adv-x="826" 
d="M412 721l-86 -151h-70l95 160h125l95 -160h-70l-87 151h-2zM714 495h85l-132 -495h-148l-105 489h-2l-105 -489h-148l-132 495h88l121 -489h2l105 489h143l104 -489h2z" />
    <glyph glyph-name="Ycircumflex" unicode="&#x176;" horiz-adv-x="660" 
d="M342 966l-86 -151h-70l95 160h125l95 -160h-70l-87 151h-2zM570 740h95l-374 -740h-95l138 277h-83l-235 463h101l226 -455h2z" />
    <glyph glyph-name="ycircumflex" unicode="&#x177;" horiz-adv-x="526" 
d="M265 721l-86 -151h-70l95 160h125l95 -160h-70l-87 151h-2zM414 495h88l-234 -725h-88l75 230h-70l-159 495h88l149 -489h2z" />
    <glyph glyph-name="Ydieresis" unicode="&#x178;" horiz-adv-x="660" 
d="M303 955v-105h-79v105h79zM461 955v-105h-78v105h78zM570 740h95l-374 -740h-95l138 277h-83l-235 463h101l226 -455h2z" />
    <glyph glyph-name="Zacute" unicode="&#x179;" horiz-adv-x="666" 
d="M473 925l-177 -89l-25 46l174 94zM51 70h581v-70h-592v163l559 505v2h-546v70h557v-163l-559 -505v-2z" />
    <glyph glyph-name="zacute" unicode="&#x17a;" horiz-adv-x="518" 
d="M395 680l-177 -89l-25 46l174 94zM56 62h425v-62h-436v143l406 289v2h-400v61h412v-142l-407 -289v-2z" />
    <glyph glyph-name="Zdotaccent" unicode="&#x17b;" horiz-adv-x="666" 
d="M377 955v-105h-82v105h82zM51 70h581v-70h-592v163l559 505v2h-546v70h557v-163l-559 -505v-2z" />
    <glyph glyph-name="zdotaccent" unicode="&#x17c;" horiz-adv-x="518" 
d="M300 710v-105h-82v105h82zM56 62h425v-62h-436v143l406 289v2h-400v61h412v-142l-407 -289v-2z" />
    <glyph glyph-name="Zcaron" unicode="&#x17d;" horiz-adv-x="666" 
d="M274 815l-95 160h70l86 -151h2l87 151h70l-95 -160h-125zM51 70h581v-70h-592v163l559 505v2h-546v70h557v-163l-559 -505v-2z" />
    <glyph glyph-name="zcaron" unicode="&#x17e;" horiz-adv-x="518" 
d="M197 570l-95 160h70l86 -151h2l87 151h70l-95 -160h-125zM56 62h425v-62h-436v143l406 289v2h-400v61h412v-142l-407 -289v-2z" />
    <glyph glyph-name="florin" unicode="&#x192;" horiz-adv-x="657" 
d="M542 682q-45 0 -75 -30.5t-40 -85.5l-29 -164h159v-39h-166l-38 -216q-13 -74 -60.5 -115.5t-118.5 -41.5q-67 0 -118 24l18 60q37 -16 87 -16q45 0 75 30.5t40 85.5l33 189h-152v39h159l34 191q13 74 60.5 115.5t118.5 41.5q65 0 118 -24l-18 -60q-37 16 -87 16z" />
    <glyph glyph-name="Scommaaccent" unicode="&#x218;" horiz-adv-x="662" 
d="M348 420q37 -6 55.5 -9.5t52 -11.5t51.5 -17t42 -25t36.5 -35t21.5 -47.5t9 -63.5q0 -104 -76 -162.5t-211 -58.5q-127 0 -202.5 69.5t-82.5 193.5h85q6 -90 59 -140t142 -50q94 0 146 37.5t52 104.5q0 27 -7 47.5t-24.5 35t-32.5 24t-45.5 17t-47.5 11t-54 9.5
q-40 6 -62 10.5t-57 14t-54.5 22t-40 32t-30 48t-9.5 65.5q0 100 70 154.5t195 54.5q118 0 188.5 -66.5t77.5 -185.5h-85q-4 85 -52.5 132t-131.5 47t-129 -34.5t-46 -96.5q0 -28 12 -48.5t27 -32.5t45.5 -21.5t51.5 -13.5t61 -10zM288 -140v65h83v-57q0 -41 -19.5 -66
t-63.5 -42v32q70 18 77 68h-77z" />
    <glyph glyph-name="scommaaccent" unicode="&#x219;" horiz-adv-x="506" 
d="M270 289q36 -6 55.5 -10.5t49.5 -16t46 -25.5t28.5 -39t12.5 -58q0 -71 -55.5 -110.5t-154.5 -39.5t-154.5 45t-55.5 125h79q0 -53 34.5 -82.5t96.5 -29.5q61 0 95.5 22.5t34.5 62.5q0 20 -9 35t-19.5 24t-34 16.5t-37 10.5t-44.5 9q-34 6 -52.5 10t-47 14.5t-43.5 23.5
t-26.5 35.5t-11.5 52.5q0 65 52 103t143 38q92 0 143.5 -43t51.5 -121h-79q0 51 -30.5 79t-85.5 28q-54 0 -84.5 -21t-30.5 -58q0 -20 10 -34t31.5 -23t40 -13t51.5 -10zM210 -140v65h83v-57q0 -41 -19.5 -66t-63.5 -42v32q70 18 77 68h-77z" />
    <glyph glyph-name="uni021A" unicode="&#x21a;" horiz-adv-x="580" 
d="M561 740v-70h-228v-670h-86v670h-228v70h542zM249 -140v65h83v-57q0 -41 -19.5 -66t-63.5 -42v32q70 18 77 68h-77z" />
    <glyph glyph-name="uni021B" unicode="&#x21b;" horiz-adv-x="375" 
d="M354 434h-169v-289q0 -41 23.5 -64t66.5 -23q39 0 71 16v-64q-43 -20 -97 -20q-69 0 -107.5 39.5t-38.5 110.5v294h-80v61h86v172h82v-42q0 -41 -21 -74.5t-57 -53.5v-2h241v-61zM148 -140v65h83v-57q0 -41 -19.5 -66t-63.5 -42v32q70 18 77 68h-77z" />
    <glyph glyph-name="uni0237" unicode="&#x237;" horiz-adv-x="237" 
d="M78 495h82v-725h-82v725z" />
    <glyph glyph-name="circumflex" unicode="&#x2c6;" horiz-adv-x="347" 
d="M236 730l95 -160h-70l-87 151h-2l-86 -151h-70l95 160h125z" />
    <glyph glyph-name="caron" unicode="&#x2c7;" horiz-adv-x="347" 
d="M261 730h70l-95 -160h-125l-95 160h70l86 -151h2z" />
    <glyph glyph-name="breve" unicode="&#x2d8;" horiz-adv-x="340" 
d="M315 730q0 -77 -38.5 -120t-106.5 -43t-106.5 43t-38.5 120h61q0 -51 22.5 -80t61.5 -29t61.5 29t22.5 80h61z" />
    <glyph glyph-name="dotaccent" unicode="&#x2d9;" horiz-adv-x="210" 
d="M64 605v105h82v-105h-82z" />
    <glyph glyph-name="ring" unicode="&#x2da;" horiz-adv-x="283" 
d="M142 552q-55 0 -86.5 29.5t-31.5 80.5q0 52 31 81t87 29q55 0 86 -29t31 -81q0 -51 -31 -80.5t-86 -29.5zM142 599q29 0 45 16.5t16 46.5t-16 47t-45 17t-45.5 -17t-16.5 -47t16.5 -46.5t45.5 -16.5z" />
    <glyph glyph-name="ogonek" unicode="&#x2db;" horiz-adv-x="221" 
d="M202 -217q-39 -23 -93 -23q-40 0 -62.5 19t-22.5 54q0 51 53 108t107 57v2h9q-98 -88 -98 -156q0 -32 33 -32q38 0 74 23v-52z" />
    <glyph glyph-name="tilde" unicode="&#x2dc;" horiz-adv-x="410" 
d="M273 597q-37 0 -79 32t-64 32t-36.5 -18t-16.5 -50h-45q1 62 28 96.5t75 34.5q37 0 80 -31.5t64 -31.5q47 0 53 67h45q-1 -62 -28 -96.5t-76 -34.5z" />
    <glyph glyph-name="hungarumlaut" unicode="&#x2dd;" horiz-adv-x="383" 
d="M170 747l44 -41l-148 -133l-37 38zM307 747l44 -41l-148 -133l-37 38z" />
    <glyph glyph-name="gravecomb" unicode="&#x300;" horiz-adv-x="0" 
d="M-188 731l174 -94l-25 -46l-177 89z" />
    <glyph glyph-name="acutecomb" unicode="&#x301;" horiz-adv-x="0" 
d="M-45 731l28 -51l-177 -89l-25 46z" />
    <glyph glyph-name="uni0302" unicode="&#x302;" horiz-adv-x="0" 
d="M-111 730l95 -160h-70l-87 151h-2l-86 -151h-70l95 160h125z" />
    <glyph glyph-name="tildecomb" unicode="&#x303;" horiz-adv-x="0" 
d="M-136 597q-29 0 -54.5 16t-47.5 32t-41 16q-22 0 -36.5 -18t-16.5 -50h-45q1 62 28 96.5t75 34.5q37 0 80 -31.5t64 -31.5q47 0 53 67h45q-1 -62 -28 -96.5t-76 -34.5z" />
    <glyph glyph-name="uni0304" unicode="&#x304;" horiz-adv-x="0" 
d="M-304 688h282v-61h-282v61z" />
    <glyph glyph-name="uni0306" unicode="&#x306;" horiz-adv-x="0" 
d="M-25 730q0 -77 -38.5 -120t-106.5 -43t-106.5 43t-38.5 120h61q0 -51 22.5 -80t61.5 -29t61.5 29t22.5 80h61z" />
    <glyph glyph-name="uni0307" unicode="&#x307;" horiz-adv-x="0" 
d="M-146 605v105h82v-105h-82z" />
    <glyph glyph-name="uni0308" unicode="&#x308;" horiz-adv-x="0" 
d="M-305 605v105h79v-105h-79zM-146 605v105h78v-105h-78z" />
    <glyph glyph-name="uni030A" unicode="&#x30a;" horiz-adv-x="0" 
d="M-141 552q-55 0 -86.5 29.5t-31.5 80.5q0 52 31 81t87 29q55 0 86 -29t31 -81q0 -51 -31 -80.5t-86 -29.5zM-141 599q29 0 45 16.5t16 46.5t-16 47t-45 17t-45.5 -17t-16.5 -47t16.5 -46.5t45.5 -16.5z" />
    <glyph glyph-name="uni030B" unicode="&#x30b;" horiz-adv-x="0" 
d="M-213 747l44 -41l-148 -133l-37 38zM-76 747l44 -41l-148 -133l-37 38z" />
    <glyph glyph-name="uni030C" unicode="&#x30c;" horiz-adv-x="0" 
d="M-86 730h70l-95 -160h-125l-95 160h70l86 -151h2z" />
    <glyph glyph-name="uni0312" unicode="&#x312;" horiz-adv-x="0" 
d="M-18 724q-71 -11 -77 -51h77v-70h-83v59q0 37 19.5 59.5t63.5 34.5v-32z" />
    <glyph glyph-name="uni0326" unicode="&#x326;" horiz-adv-x="0" 
d="M-114 -75h83v-57q0 -41 -19.5 -66t-63.5 -42v32q70 18 77 68h-77v65z" />
    <glyph glyph-name="uni0327" unicode="&#x327;" horiz-adv-x="0" 
d="M-155 -240q-48 0 -89 22v43q36 -23 81 -23q36 0 56 14t20 38q0 19 -13 30t-36 11q-36 1 -58 -24l-34 24q37 42 101 42q48 0 75.5 -21.5t27.5 -59.5q0 -46 -34.5 -71t-96.5 -25z" />
    <glyph glyph-name="uni0328" unicode="&#x328;" horiz-adv-x="0" 
d="M-19 -217q-39 -23 -93 -23q-40 0 -62.5 19t-22.5 54q0 51 53 108t107 57v2h9q-98 -88 -98 -156q0 -32 33 -32q38 0 74 23v-52z" />
    <glyph glyph-name="uni0335" unicode="&#x335;" horiz-adv-x="0" 
d="M-380 371h323v-39h-323v39z" />
    <glyph glyph-name="uni0336" unicode="&#x336;" horiz-adv-x="0" 
d="M-726 371v-39h670v39h-670z" />
    <glyph glyph-name="uni0337" unicode="&#x337;" horiz-adv-x="0" 
d="M-45 533l38 -24l-360 -548l-38 25z" />
    <glyph glyph-name="uni0338" unicode="&#x338;" horiz-adv-x="0" 
d="M-68 777l42 -26l-477 -788l-42 26z" />
    <glyph glyph-name="uni0394" unicode="&#x394;" horiz-adv-x="685" 
d="M419 740l253 -740h-659l254 740h152zM124 70h432l-214 662h-2z" />
    <glyph glyph-name="uni03A9" unicode="&#x3a9;" horiz-adv-x="779" 
d="M486 73v-2h222v-71h-270v71q91 0 141.5 80.5t50.5 223.5t-63.5 222.5t-176.5 79.5q-114 0 -178 -78.5t-64 -217.5q0 -146 50.5 -228t141.5 -82v-71h-269v71h221v2q-109 0 -170.5 87t-61.5 242q0 164 87 256t243 92q155 0 242 -92t87 -256q0 -155 -62 -242t-171 -87z" />
    <glyph glyph-name="uni03BC" unicode="&#x3bc;" horiz-adv-x="577" 
d="M417 495h82v-495h-82v170h-2q0 -85 -43 -132.5t-120 -47.5q-63 0 -105 31t-59 88l72 -335v-4h-82v725h82v-305q0 -63 31.5 -98t89.5 -35q64 0 100 44t36 124v270z" />
    <glyph glyph-name="pi" unicode="&#x3c0;" horiz-adv-x="614" 
d="M593 495v-61h-90v-434h-82v434h-228v-434h-82v434h-90v61h572z" />
    <glyph glyph-name="Wgrave" unicode="&#x1e80;" horiz-adv-x="1013" 
d="M574 882l-25 -46l-177 89l28 51zM899 740h88l-171 -740h-160l-149 732h-2l-148 -732h-161l-170 740h93l162 -732h2l150 732h149l152 -732h2z" />
    <glyph glyph-name="wgrave" unicode="&#x1e81;" horiz-adv-x="826" 
d="M479 637l-25 -46l-177 89l28 51zM714 495h85l-132 -495h-148l-105 489h-2l-105 -489h-148l-132 495h88l121 -489h2l105 489h143l104 -489h2z" />
    <glyph glyph-name="Wacute" unicode="&#x1e82;" horiz-adv-x="1013" 
d="M644 925l-177 -89l-25 46l174 94zM899 740h88l-171 -740h-160l-149 732h-2l-148 -732h-161l-170 740h93l162 -732h2l150 732h149l152 -732h2z" />
    <glyph glyph-name="wacute" unicode="&#x1e83;" horiz-adv-x="826" 
d="M550 680l-177 -89l-25 46l174 94zM714 495h85l-132 -495h-148l-105 489h-2l-105 -489h-148l-132 495h88l121 -489h2l105 489h143l104 -489h2z" />
    <glyph glyph-name="Wdieresis" unicode="&#x1e84;" horiz-adv-x="1013" 
d="M469 955v-105h-79v105h79zM627 955v-105h-78v105h78zM899 740h88l-171 -740h-160l-149 732h-2l-148 -732h-161l-170 740h93l162 -732h2l150 732h149l152 -732h2z" />
    <glyph glyph-name="wdieresis" unicode="&#x1e85;" horiz-adv-x="826" 
d="M374 710v-105h-79v105h79zM532 710v-105h-78v105h78zM714 495h85l-132 -495h-148l-105 489h-2l-105 -489h-148l-132 495h88l121 -489h2l105 489h143l104 -489h2z" />
    <glyph glyph-name="uni1E9E" unicode="&#x1e9e;" horiz-adv-x="671" 
d="M331 410q139 0 217 -56t78 -156q0 -98 -69.5 -153t-193.5 -55q-61 0 -103 12v71q40 -10 98 -10q85 0 133 36t48 101q0 70 -54 108.5t-152 38.5h-49v65q95 4 148 41t53 99q0 59 -40.5 92t-113.5 33q-74 0 -115.5 -39.5t-41.5 -111.5v-526h-86v523q0 107 64.5 167t178.5 60
t178 -46t64 -128q0 -77 -66.5 -120.5t-185.5 -43.5v-2h10z" />
    <glyph glyph-name="Ygrave" unicode="&#x1ef2;" horiz-adv-x="660" 
d="M408 882l-25 -46l-177 89l28 51zM570 740h95l-374 -740h-95l138 277h-83l-235 463h101l226 -455h2z" />
    <glyph glyph-name="ygrave" unicode="&#x1ef3;" horiz-adv-x="526" 
d="M331 637l-25 -46l-177 89l28 51zM414 495h88l-234 -725h-88l75 230h-70l-159 495h88l149 -489h2z" />
    <glyph glyph-name="endash" unicode="&#x2013;" horiz-adv-x="582" 
d="M68 271h446v-39h-446v39z" />
    <glyph glyph-name="emdash" unicode="&#x2014;" horiz-adv-x="866" 
d="M68 271h730v-39h-730v39z" />
    <glyph glyph-name="quoteleft" unicode="&#x2018;" horiz-adv-x="218" 
d="M157 691q-84 -22 -94 -94h94v-95h-100v81q0 59 26.5 102t73.5 60v-54z" />
    <glyph glyph-name="quoteright" unicode="&#x2019;" horiz-adv-x="212" 
d="M63 740h100v-81q0 -59 -26.5 -102t-73.5 -60v54q84 22 94 94h-94v95z" />
    <glyph glyph-name="quotesinglbase" unicode="&#x201a;" horiz-adv-x="226" 
d="M68 95h100v-81q0 -59 -26.5 -102t-73.5 -60v54q84 22 94 94h-94v95z" />
    <glyph glyph-name="quotedblleft" unicode="&#x201c;" horiz-adv-x="368" 
d="M57 583q0 59 26.5 102t73.5 60v-54q-84 -22 -94 -94h94v-95h-100v81zM307 691q-84 -22 -94 -94h94v-95h-100v81q0 59 26.5 102t73.5 60v-54z" />
    <glyph glyph-name="quotedblright" unicode="&#x201d;" horiz-adv-x="362" 
d="M63 645v95h100v-81q0 -59 -26.5 -102t-73.5 -60v54q84 22 94 94h-94zM213 740h100v-81q0 -59 -26.5 -102t-73.5 -60v54q84 22 94 94h-94v95z" />
    <glyph glyph-name="quotedblbase" unicode="&#x201e;" horiz-adv-x="376" 
d="M68 0v95h100v-81q0 -59 -26.5 -102t-73.5 -60v54q84 22 94 94h-94zM218 95h100v-81q0 -59 -26.5 -102t-73.5 -60v54q84 22 94 94h-94v95z" />
    <glyph glyph-name="dagger" unicode="&#x2020;" horiz-adv-x="382" 
d="M219 655h111v-47h-113v-254h-54v163q0 70 49 89v2h-159v47h113v115h53v-115z" />
    <glyph glyph-name="daggerdbl" unicode="&#x2021;" horiz-adv-x="382" 
d="M330 608h-113v-92h113v-47h-113v-115h-54v24q0 70 49 89v2h-159v47h110v1q0 70 49 89v2h-159v47h113v115h53v-115h111v-47z" />
    <glyph glyph-name="bullet" unicode="&#x2022;" horiz-adv-x="350" 
d="M89 216v159h172v-159h-172z" />
    <glyph glyph-name="ellipsis" unicode="&#x2026;" horiz-adv-x="615" 
d="M65 95h100v-95h-100v95zM257 95h100v-95h-100v95zM449 95h100v-95h-100v95z" />
    <glyph glyph-name="perthousand" unicode="&#x2030;" horiz-adv-x="1037" 
d="M102 15l478 735l33 -25l-478 -735zM181 360q-66 0 -103 49t-37 136t37 136t103 49t103 -49t37 -136t-37 -136t-103 -49zM181 413q34 0 53.5 35t19.5 97t-19.5 97t-53.5 35q-35 0 -54.5 -35t-19.5 -97t19.5 -97t54.5 -35zM535 -10q-66 0 -103 49t-37 136t37 136t103 49
q67 0 104 -49t37 -136t-37 -136t-104 -49zM865 -10q-66 0 -103 49t-37 136t37 136t103 49t103 -49t37 -136t-37 -136t-103 -49zM535 43q35 0 54.5 35t19.5 97t-19.5 97t-54.5 35q-34 0 -53.5 -35t-19.5 -97t19.5 -97t53.5 -35zM865 43q34 0 53.5 35t19.5 97t-19.5 97
t-53.5 35q-35 0 -54.5 -35t-19.5 -97t19.5 -97t54.5 -35z" />
    <glyph glyph-name="guilsinglleft" unicode="&#x2039;" horiz-adv-x="270" 
d="M41 250l128 193h50l-126 -193l126 -193h-50z" />
    <glyph glyph-name="guilsinglright" unicode="&#x203a;" horiz-adv-x="270" 
d="M229 250l-128 -193h-50l126 193l-126 193h50z" />
    <glyph glyph-name="fraction" unicode="&#x2044;" horiz-adv-x="210" 
d="M-150 15l478 735l33 -25l-478 -735z" />
    <glyph glyph-name="uni2070" unicode="&#x2070;" horiz-adv-x="397" 
d="M198 352q-77 0 -121 60.5t-44 167.5t44 167.5t121 60.5q78 0 122 -60.5t44 -167.5t-44 -167.5t-122 -60.5zM198 406q47 0 73 46t26 128t-26 128t-73 46q-46 0 -72 -46t-26 -128t26 -128t72 -46z" />
    <glyph glyph-name="uni2074" unicode="&#x2074;" horiz-adv-x="376" 
d="M355 520v-52h-58v-110h-66v110h-213v56l155 278h124v-282h58zM231 796l-151 -274v-2h153v276h-2z" />
    <glyph glyph-name="uni2075" unicode="&#x2075;" horiz-adv-x="371" 
d="M184 352q-66 0 -107 34.5t-49 96.5h65q6 -36 30 -56.5t61 -20.5q44 0 69 25.5t25 71.5q0 47 -24.5 72.5t-68.5 25.5q-69 0 -89 -68l-64 8l35 261h245v-52h-187l-30 -206h2q8 50 40 78.5t81 28.5q60 0 94 -38.5t34 -105.5q0 -73 -43 -114t-119 -41z" />
    <glyph glyph-name="uni2076" unicode="&#x2076;" horiz-adv-x="388" 
d="M226 644q63 0 98 -36.5t35 -101.5q0 -72 -44 -113t-118 -41q-81 0 -123 55t-42 162q0 113 45.5 176t127.5 63q63 0 101 -34.5t43 -96.5h-64q-4 37 -25 57t-55 20q-50 0 -78.5 -48t-28.5 -133v-44h2q0 53 33.5 84t92.5 31zM195 406q45 0 70.5 25.5t25.5 70.5
q0 43 -25.5 66.5t-70.5 23.5q-44 0 -69 -23t-25 -64q0 -45 26 -72t68 -27z" />
    <glyph glyph-name="uni2077" unicode="&#x2077;" horiz-adv-x="332" 
d="M12 802h307v-49q-67 -19 -105 -111t-38 -237v-47h-69v36q0 157 49.5 250t138.5 104v2h-283v52z" />
    <glyph glyph-name="uni2078" unicode="&#x2078;" horiz-adv-x="384" 
d="M230 612q59 -8 91 -41t32 -86q0 -62 -42.5 -97.5t-118.5 -35.5t-118 35.5t-42 97.5q0 53 32 86t90 41v2q-51 0 -79.5 23.5t-28.5 65.5q0 50 38.5 77.5t107.5 27.5t107.5 -27.5t38.5 -77.5q0 -42 -28.5 -65.5t-79.5 -23.5v-2zM113 682q0 -34 21 -53.5t58 -19.5t58 19
t21 54q0 34 -21 53t-58 19t-58 -19t-21 -53zM192 406q44 0 68 21t24 58q0 38 -24 59t-68 21t-68.5 -21t-24.5 -59q0 -37 24.5 -58t68.5 -21z" />
    <glyph glyph-name="uni2079" unicode="&#x2079;" horiz-adv-x="388" 
d="M193 808q163 0 163 -217q0 -113 -45.5 -176t-127.5 -63q-63 0 -101 38t-43 105h64q4 -42 25 -65.5t55 -23.5q50 0 78.5 48t28.5 133v50h-2q0 -51 -33.5 -80t-92.5 -29q-63 0 -98 35t-35 97q0 69 44 108.5t120 39.5zM193 580q44 0 69 21.5t25 59.5q0 43 -26 68t-68 25
q-45 0 -70.5 -23.5t-25.5 -66.5q0 -40 25.5 -62t70.5 -22z" />
    <glyph glyph-name="uni2080" unicode="&#x2080;" horiz-adv-x="397" 
d="M198 -116q-77 0 -121 60.5t-44 167.5t44 167.5t121 60.5q78 0 122 -60.5t44 -167.5t-44 -167.5t-122 -60.5zM198 -62q47 0 73 46t26 128t-26 128t-73 46q-46 0 -72 -46t-26 -128t26 -128t72 -46z" />
    <glyph glyph-name="uni2081" unicode="&#x2081;" horiz-adv-x="230" 
d="M104 334h66v-444h-66v423h-2q0 -46 -22.5 -72t-62.5 -26v57q41 0 64 16.5t23 45.5z" />
    <glyph glyph-name="uni2082" unicode="&#x2082;" horiz-adv-x="371" 
d="M52 -58h291v-52h-315v49q110 35 172 101.5t62 151.5q0 44 -21 69t-58 25q-38 0 -61 -28.5t-25 -79.5h-64q5 77 44.5 119.5t106.5 42.5q70 0 109 -39.5t39 -110.5q0 -98 -74 -163.5t-206 -82.5v-2z" />
    <glyph glyph-name="uni2083" unicode="&#x2083;" horiz-adv-x="369" 
d="M182 141q73 0 114 -33t41 -92q0 -62 -42 -97t-117 -35q-68 0 -108 38.5t-44 106.5h63q2 -43 25.5 -67.5t63.5 -24.5q43 0 67 21t24 58q0 36 -25 57t-70 21h-12v48q44 5 69 25.5t25 51.5q0 32 -20.5 50t-57.5 18q-36 0 -57.5 -24.5t-23.5 -68.5h-63q5 69 44.5 107.5
t105.5 38.5t103 -27t37 -74q0 -45 -38.5 -70.5t-106.5 -25.5v-2h3z" />
    <glyph glyph-name="uni2084" unicode="&#x2084;" horiz-adv-x="376" 
d="M356 52v-52h-58v-110h-66v110h-213v56l155 278h124v-282h58zM232 328l-151 -274v-2h153v276h-2z" />
    <glyph glyph-name="uni2085" unicode="&#x2085;" horiz-adv-x="371" 
d="M184 -116q-66 0 -107 34.5t-49 96.5h65q6 -36 30 -56.5t61 -20.5q44 0 69 25.5t25 71.5q0 47 -24.5 72.5t-68.5 25.5q-69 0 -89 -68l-64 8l35 261h245v-52h-187l-30 -206h2q8 50 40 78.5t81 28.5q60 0 94 -38t34 -106q0 -73 -43 -114t-119 -41z" />
    <glyph glyph-name="uni2086" unicode="&#x2086;" horiz-adv-x="388" 
d="M226 176q63 0 98 -36.5t35 -101.5q0 -72 -44 -113t-118 -41q-81 0 -123 55t-42 162q0 113 45.5 176t127.5 63q63 0 101 -34.5t43 -96.5h-64q-4 37 -25 57t-55 20q-50 0 -78.5 -48t-28.5 -133v-44h2q0 53 33.5 84t92.5 31zM195 -62q45 0 70.5 25.5t25.5 70.5
q0 43 -25.5 66.5t-70.5 23.5q-44 0 -69 -23t-25 -64q0 -45 26 -72t68 -27z" />
    <glyph glyph-name="uni2087" unicode="&#x2087;" horiz-adv-x="332" 
d="M13 334h307v-49q-67 -19 -105 -111t-38 -237v-47h-69v36q0 157 49.5 250t138.5 104v2h-283v52z" />
    <glyph glyph-name="uni2088" unicode="&#x2088;" horiz-adv-x="384" 
d="M230 144q59 -8 91 -41t32 -86q0 -62 -42.5 -97.5t-118.5 -35.5t-118 35.5t-42 97.5q0 53 32 86t90 41v2q-51 0 -79.5 23.5t-28.5 65.5q0 50 38.5 77.5t107.5 27.5t107.5 -27.5t38.5 -77.5q0 -42 -28.5 -65.5t-79.5 -23.5v-2zM113 214q0 -34 21 -53.5t58 -19.5t58 19
t21 54q0 34 -21 53t-58 19t-58 -19t-21 -53zM192 -62q44 0 68 21t24 58q0 38 -24 59t-68 21t-68.5 -21t-24.5 -59q0 -37 24.5 -58t68.5 -21z" />
    <glyph glyph-name="uni2089" unicode="&#x2089;" horiz-adv-x="388" 
d="M193 340q163 0 163 -217q0 -113 -45.5 -176t-127.5 -63q-63 0 -101 38t-43 105h64q4 -42 25 -65.5t55 -23.5q50 0 78.5 48t28.5 133v50h-2q0 -51 -33.5 -80t-92.5 -29q-63 0 -98 35t-35 97q0 69 44 108.5t120 39.5zM193 112q44 0 69 21.5t25 59.5q0 43 -26 68t-68 25
q-45 0 -70.5 -23.5t-25.5 -66.5q0 -40 25.5 -62t70.5 -22z" />
    <glyph glyph-name="Euro" unicode="&#x20ac;" horiz-adv-x="652" 
d="M584 132l37 -61q-44 -38 -103 -59.5t-113 -21.5q-128 0 -207 79.5t-96 223.5h-67v43h64q-1 11 -1 34q0 26 1 38h-64v43h68q17 143 96 221t206 78q117 0 200 -58l-37 -64q-65 49 -163 49q-87 0 -142.5 -59t-70.5 -166h281l-24 -44h-262q-1 -12 -1 -38q0 -22 1 -33h224
l-24 -44h-196q14 -110 70 -170t144 -60q45 0 93.5 17.5t85.5 51.5z" />
    <glyph glyph-name="trademark" unicode="&#x2122;" horiz-adv-x="673" 
d="M29 740v30h217v-30h-89v-266h-38v266h-90zM593 770l9 -296h-37l-9 291h-2l-83 -291h-67l-79 291h-2l-9 -291h-34l9 296h72l77 -291h2l81 291h72z" />
    <glyph glyph-name="oneeighth" unicode="&#x215b;" horiz-adv-x="811" 
d="M121 731q0 -46 -22.5 -72t-62.5 -26v57q41 0 64 16.5t23 45.5h66v-444h-66v423h-2zM553 750l33 -25l-478 -735l-33 25zM649 254q59 -8 91 -41t32 -86q0 -62 -42.5 -97.5t-118.5 -35.5t-118 35.5t-42 97.5q0 53 32 86t90 41v2q-51 0 -79.5 23.5t-28.5 65.5q0 50 38.5 77.5
t107.5 27.5t107.5 -27.5t38.5 -77.5q0 -42 -28.5 -65.5t-79.5 -23.5v-2zM532 324q0 -34 21 -53.5t58 -19.5t58 19t21 54q0 34 -21 53t-58 19t-58 -19t-21 -53zM611 48q44 0 68 21t24 58q0 38 -24 59t-68 21t-68.5 -21t-24.5 -59q0 -37 24.5 -58t68.5 -21z" />
    <glyph glyph-name="threeeighths" unicode="&#x215c;" horiz-adv-x="944" 
d="M348 434q0 -62 -42 -97t-117 -35q-68 0 -108 38.5t-44 106.5h63q2 -43 25.5 -67.5t63.5 -24.5q43 0 67 21t24 58q0 36 -25 57t-70 21h-12v48q44 5 69 25.5t25 51.5q0 32 -20.5 50t-57.5 18q-36 0 -57.5 -24.5t-23.5 -68.5h-63q5 69 44.5 107.5t105.5 38.5t103 -27t37 -74
q0 -45 -38.5 -70.5t-106.5 -25.5v-2h3q73 0 114 -33t41 -92zM686 750l33 -25l-478 -735l-33 25zM782 254q59 -8 91 -41t32 -86q0 -62 -42.5 -97.5t-118.5 -35.5t-118 35.5t-42 97.5q0 53 32 86t90 41v2q-51 0 -79.5 23.5t-28.5 65.5q0 50 38.5 77.5t107.5 27.5t107.5 -27.5
t38.5 -77.5q0 -42 -28.5 -65.5t-79.5 -23.5v-2zM665 324q0 -34 21 -53.5t58 -19.5t58 19t21 54q0 34 -21 53t-58 19t-58 -19t-21 -53zM744 48q44 0 68 21t24 58q0 38 -24 59t-68 21t-68.5 -21t-24.5 -59q0 -37 24.5 -58t68.5 -21z" />
    <glyph glyph-name="fiveeighths" unicode="&#x215d;" horiz-adv-x="949" 
d="M356 457q0 -73 -43 -114t-119 -41q-66 0 -107 34.5t-49 96.5h65q6 -36 30 -56.5t61 -20.5q44 0 69 25.5t25 71.5q0 47 -24.5 72.5t-68.5 25.5q-69 0 -89 -68l-64 8l35 261h245v-52h-187l-30 -206h2q8 50 40 78.5t81 28.5q60 0 94 -38.5t34 -105.5zM691 750l33 -25
l-478 -735l-33 25zM787 254q59 -8 91 -41t32 -86q0 -62 -42.5 -97.5t-118.5 -35.5t-118 35.5t-42 97.5q0 53 32 86t90 41v2q-51 0 -79.5 23.5t-28.5 65.5q0 50 38.5 77.5t107.5 27.5t107.5 -27.5t38.5 -77.5q0 -42 -28.5 -65.5t-79.5 -23.5v-2zM670 324q0 -34 21 -53.5
t58 -19.5t58 19t21 54q0 34 -21 53t-58 19t-58 -19t-21 -53zM749 48q44 0 68 21t24 58q0 38 -24 59t-68 21t-68.5 -21t-24.5 -59q0 -37 24.5 -58t68.5 -21z" />
    <glyph glyph-name="seveneighths" unicode="&#x215e;" horiz-adv-x="923" 
d="M122 344q0 157 49.5 250t138.5 104v2h-283v52h307v-49q-67 -19 -105 -111t-38 -237v-47h-69v36zM659 750l33 -25l-478 -735l-33 25zM755 254q59 -8 91 -41t32 -86q0 -62 -42.5 -97.5t-118.5 -35.5t-118 35.5t-42 97.5q0 53 32 86t90 41v2q-51 0 -79.5 23.5t-28.5 65.5
q0 50 38.5 77.5t107.5 27.5t107.5 -27.5t38.5 -77.5q0 -42 -28.5 -65.5t-79.5 -23.5v-2zM638 324q0 -34 21 -53.5t58 -19.5t58 19t21 54q0 34 -21 53t-58 19t-58 -19t-21 -53zM717 48q44 0 68 21t24 58q0 38 -24 59t-68 21t-68.5 -21t-24.5 -59q0 -37 24.5 -58t68.5 -21z
" />
    <glyph glyph-name="partialdiff" unicode="&#x2202;" horiz-adv-x="649" 
d="M318 750q132 0 206.5 -100.5t74.5 -278.5q0 -179 -87.5 -280t-243.5 -101q-110 0 -171.5 45.5t-61.5 126.5q0 99 126 154.5t351 55.5q0 144 -52 224.5t-146 80.5q-69 0 -111.5 -35t-50.5 -97h-85q12 97 78.5 151t172.5 54zM269 63q114 0 178 81t65 226q-184 0 -286.5 -51
t-102.5 -142q0 -54 38.5 -84t107.5 -30z" />
    <glyph glyph-name="emptyset" unicode="&#x2205;" horiz-adv-x="628" 
d="M520 426q54 -68 54 -174q0 -123 -68.5 -192t-190.5 -69q-107 0 -173 52l-40 -40l-34 33l40 41q-54 66 -54 175q0 122 69 190t192 68q103 0 170 -50l39 39l35 -34zM101 252q0 -87 40 -142l311 316q-53 41 -138 41q-100 0 -156.5 -57t-56.5 -158zM314 34q100 0 156 57.5
t56 160.5q0 85 -40 139l-312 -315q56 -42 140 -42z" />
    <glyph glyph-name="product" unicode="&#x220f;" horiz-adv-x="834" 
d="M811 770v-74h-140v-926h-82v926h-343v-926h-82v926h-140v74h787z" />
    <glyph glyph-name="summation" unicode="&#x2211;" horiz-adv-x="659" 
d="M51 -161l580 1v-70h-592v158l462 367v2l-451 315v158h561v-70l-549 1v-2l450 -311v-185l-461 -362v-2z" />
    <glyph glyph-name="minus" unicode="&#x2212;" horiz-adv-x="521" 
d="M69 232v40h383v-40h-383z" />
    <glyph glyph-name="radical" unicode="&#x221a;" horiz-adv-x="654" 
d="M561 770h93l-279 -880h-160l-92 335h-113v70h185l98 -399h2z" />
    <glyph glyph-name="infinity" unicode="&#x221e;" horiz-adv-x="803" 
d="M564 445q87 0 136 -51.5t49 -142.5t-49 -142.5t-136 -51.5q-61 0 -103 28.5t-59 81.5q-38 -110 -163 -110q-87 0 -136 51.5t-49 142.5t49 142.5t136 51.5q125 0 163 -110q17 53 59 81.5t103 28.5zM239 97q65 0 102 40.5t37 113.5t-37 113.5t-102 40.5t-102 -40.5
t-37 -113.5t37 -113.5t102 -40.5zM564 97q65 0 102 40.5t37 113.5t-37 113.5t-102 40.5t-102 -40.5t-37 -113.5t37 -113.5t102 -40.5z" />
    <glyph glyph-name="integral" unicode="&#x222b;" horiz-adv-x="465" 
d="M192 592q0 89 46.5 138.5t129.5 49.5q65 0 109 -23l-19 -62q-35 17 -81 17q-50 0 -76.5 -30t-26.5 -85v-649q0 -89 -47 -138.5t-130 -49.5q-65 0 -108 23l18 62q35 -17 81 -17q50 0 77 30t27 85v649z" />
    <glyph glyph-name="approxequal" unicode="&#x2248;" horiz-adv-x="594" 
d="M410 277q-48 0 -86 19t-71.5 38t-70.5 19q-32 0 -51.5 -21t-22.5 -59h-39q1 58 31 90t85 32q48 0 86 -19t71.5 -38t70.5 -19q32 0 51.5 21t22.5 59h38q-1 -58 -31 -90t-84 -32zM410 105q-48 0 -86 19t-71.5 38t-70.5 19q-32 0 -51.5 -21t-22.5 -59h-39q1 58 31 90t85 32
q48 0 86 -19t71.5 -38t70.5 -19q32 0 51.5 21t22.5 59h38q-1 -58 -31 -90t-84 -32z" />
    <glyph glyph-name="notequal" unicode="&#x2260;" horiz-adv-x="521" 
d="M452 303h-154l-30 -102h184v-40h-195l-47 -161h-44l47 161h-144v40h155l30 102h-185v40h197l44 152h44l-44 -152h142v-40z" />
    <glyph glyph-name="lessequal" unicode="&#x2264;" horiz-adv-x="512" 
d="M445 187v-44l-382 140v76l382 141v-44l-376 -135v-2zM63 52h383v-40h-383v40z" />
    <glyph glyph-name="greaterequal" unicode="&#x2265;" horiz-adv-x="512" 
d="M67 500l382 -141v-76l-382 -140v44l376 132v2l-376 135v44zM66 12v40h383v-40h-383z" />
    <glyph glyph-name="lozenge" unicode="&#x25ca;" horiz-adv-x="495" 
d="M297 495l148 -191v-113l-148 -191h-99l-147 191v113l147 191h99zM439 247v2l-190 242h-2l-190 -242v-2l190 -243h2z" />
    <glyph glyph-name="uniF8FF" unicode="&#xf8ff;" horiz-adv-x="1274" 
d="M1214 369l-368 -372q-7 -7 -17 -7q-20 0 -20 23v324l-339 -340q-7 -7 -17 -7q-20 0 -20 23v324l-340 -340q-7 -7 -17 -7q-17 0 -17 18q0 10 5 15l342 341h-324q-23 0 -23 19q0 7 7 16l340 342h-327q-20 0 -20 19v1q0 19 20 19h370q23 0 23 -20q0 -10 -8 -17l-341 -340
h330q8 0 14 -6t6 -14v-327l339 338q7 8 17 8q18 0 18 -22v-324l340 338q6 8 16 8q7 0 12 -5.5t5 -13.5q0 -9 -6 -14z" />
    <glyph glyph-name="Jacute" horiz-adv-x="552" 
d="M529 976l28 -51l-177 -89l-25 46zM378 211q0 -70 -34 -109t-95 -39q-59 0 -97 48.5t-45 133.5h-81q8 -120 66.5 -187.5t154.5 -67.5q102 0 159.5 60t57.5 167v523h-86v-529z" />
    <glyph glyph-name="i.loclTRK" horiz-adv-x="237" 
d="M78 605v105h82v-105h-82zM78 495h82v-495h-82v495z" />
    <glyph glyph-name="jacute" horiz-adv-x="237" 
d="M227 731l28 -51l-177 -89l-25 46zM78 495h82v-725h-82v725z" />
    <glyph glyph-name="f_b" horiz-adv-x="975" 
d="M292 712q-54 0 -82.5 -27.5t-28.5 -77.5v-112h175v-61h-169v-434h-82v434h-80v61h152v2q-36 20 -57 53.5t-21 74.5q0 73 46.5 114t129.5 41q54 0 92 -19l-12 -63q-27 14 -63 14zM715 505q99 0 155 -68t56 -189t-56 -189.5t-155 -68.5q-85 0 -133.5 46t-48.5 127h-2v-163
h-82v770h82v-437h2q0 81 48 126.5t134 45.5zM683 58q75 0 117 50t42 140q0 89 -42 139.5t-117 50.5t-117 -51t-42 -139t42 -139t117 -51z" />
    <glyph glyph-name="f_f_j" horiz-adv-x="918" 
d="M842 495v-725h-82v664h-253v-434h-82v434h-238v-434h-82v434h-80v61h152v2q-36 20 -57 53.5t-21 74.5q0 73 46.5 114t129.5 41q54 0 92 -19l-12 -63q-27 14 -63 14q-54 0 -82.5 -27.5t-28.5 -77.5v-112h316v2q-36 20 -57 53.5t-21 74.5q0 73 46.5 114t129.5 41
q54 0 92 -19l-12 -63q-27 14 -63 14q-54 0 -82.5 -27.5t-28.5 -77.5v-112h341zM760 710h82v-105h-82v105z" />
    <glyph glyph-name="f_f_t" horiz-adv-x="1027" 
d="M1006 434h-169v-289q0 -41 23.5 -64t66.5 -23q39 0 71 16v-64q-43 -20 -97 -20q-69 0 -107.5 39.5t-38.5 110.5v294h-248v-434h-82v434h-238v-434h-82v434h-80v61h152v2q-36 20 -57 53.5t-21 74.5q0 73 46.5 114t129.5 41q54 0 92 -19l-12 -63q-27 14 -63 14
q-54 0 -82.5 -27.5t-28.5 -77.5v-112h316v2q-36 20 -57 53.5t-21 74.5q0 73 46.5 114t129.5 41q54 0 92 -19l-12 -63q-27 14 -63 14q-54 0 -82.5 -27.5t-28.5 -77.5v-112h260v172h82v-42q0 -41 -21 -74.5t-57 -53.5v-2h241v-61z" />
    <glyph glyph-name="f_h" horiz-adv-x="954" 
d="M292 712q-54 0 -82.5 -27.5t-28.5 -77.5v-112h175v-61h-169v-434h-82v434h-80v61h152v2q-36 20 -57 53.5t-21 74.5q0 73 46.5 114t129.5 41q54 0 92 -19l-12 -63q-27 14 -63 14zM702 505q85 0 132 -52t47 -145v-308h-82v306q0 62 -33 97t-93 35q-67 0 -104 -44t-37 -123
v-271h-82v770h82v-445h2q0 85 44.5 132.5t123.5 47.5z" />
    <glyph glyph-name="f_iacute" horiz-adv-x="599" 
d="M522 495v-495h-82v434h-253v-434h-82v434h-80v61h152v2q-36 20 -57 53.5t-21 74.5q0 73 46.5 114t129.5 41q54 0 92 -19l-12 -63q-27 14 -63 14q-54 0 -82.5 -27.5t-28.5 -77.5v-112h341zM617 680l-177 -89l-25 46l174 94z" />
    <glyph glyph-name="f_j" horiz-adv-x="599" 
d="M522 495v-725h-82v664h-253v-434h-82v434h-80v61h152v2q-36 20 -57 53.5t-21 74.5q0 73 46.5 114t129.5 41q54 0 92 -19l-12 -63q-27 14 -63 14q-54 0 -82.5 -27.5t-28.5 -77.5v-112h341zM440 710h82v-105h-82v105z" />
    <glyph glyph-name="f_k" horiz-adv-x="921" 
d="M292 712q-54 0 -82.5 -27.5t-28.5 -77.5v-112h175v-61h-169v-434h-82v434h-80v61h152v2q-36 20 -57 53.5t-21 74.5q0 73 46.5 114t129.5 41q54 0 92 -19l-12 -63q-27 14 -63 14zM630 259l288 -259h-109l-275 253h-2v-253h-82v770h82v-508h2l259 233h105z" />
    <glyph glyph-name="f_t" horiz-adv-x="707" 
d="M686 434h-169v-289q0 -41 23.5 -64t66.5 -23q39 0 71 16v-64q-43 -20 -97 -20q-69 0 -107.5 39.5t-38.5 110.5v294h-248v-434h-82v434h-80v61h152v2q-36 20 -57 53.5t-21 74.5q0 73 46.5 114t129.5 41q54 0 92 -19l-12 -63q-27 14 -63 14q-54 0 -82.5 -27.5t-28.5 -77.5
v-112h260v172h82v-42q0 -41 -21 -74.5t-57 -53.5v-2h241v-61z" />
    <glyph glyph-name="t_t" horiz-adv-x="722" 
d="M532 434v-289q0 -41 23.5 -64t66.5 -23q39 0 71 16v-64q-43 -20 -97 -20q-69 0 -107.5 39.5t-38.5 110.5v294h-265v-289q0 -41 23.5 -64t66.5 -23q39 0 71 16v-64q-43 -20 -97 -20q-69 0 -107.5 39.5t-38.5 110.5v294h-80v61h86v172h82v-42q0 -41 -21 -74.5t-57 -53.5v-2
h343v172h82v-42q0 -41 -21 -74.5t-57 -53.5v-2h241v-61h-169z" />
    <glyph glyph-name="zero.lf" horiz-adv-x="647" 
d="M324 -10q-127 0 -197.5 100.5t-70.5 279.5t70.5 279.5t197.5 100.5q126 0 197 -100.5t71 -279.5t-71 -279.5t-197 -100.5zM324 63q85 0 132.5 81t47.5 226t-47.5 226t-132.5 81t-132.5 -81t-47.5 -226t47.5 -226t132.5 -81z" />
    <glyph glyph-name="one.lf" horiz-adv-x="346" 
d="M166 740h86v-740h-86v708h-2q0 -67 -36.5 -104t-101.5 -37v75q66 0 103 26t37 72z" />
    <glyph glyph-name="two.lf" horiz-adv-x="600" 
d="M84 70h471v-70h-512v65q190 54 296 169.5t106 268.5q0 82 -40 128t-110 46q-71 0 -114 -51.5t-47 -143.5h-83q6 126 71 197t175 71q113 0 176 -65.5t63 -182.5q0 -171 -119 -284.5t-333 -145.5v-2z" />
    <glyph glyph-name="three.lf" horiz-adv-x="601" 
d="M292 412q120 0 188 -55t68 -153q0 -101 -68 -157.5t-190 -56.5q-110 0 -175 63.5t-70 176.5h83q3 -80 46 -124.5t117 -44.5q79 0 123.5 37.5t44.5 105.5t-46 105.5t-129 37.5h-21v67q83 10 129 47t46 94q0 58 -39 91t-109 33q-66 0 -105.5 -45.5t-44.5 -125.5h-81
q6 114 70 178t171 64t166.5 -45.5t59.5 -125.5q0 -78 -62.5 -121.5t-175.5 -43.5v-2h4z" />
    <glyph glyph-name="four.lf" horiz-adv-x="598" 
d="M566 262v-70h-96v-192h-86v192h-358v76l282 472h162v-478h96zM384 732l-276 -468v-2h278v470h-2z" />
    <glyph glyph-name="five.lf" 
d="M301 -10q-107 0 -174 57t-79 158h85q11 -67 55 -104.5t112 -37.5q81 0 126.5 47t45.5 131t-45 131.5t-124 47.5q-127 0 -166 -127l-83 11l57 436h394v-70h-316l-51 -358h2q14 83 67 129.5t134 46.5q103 0 161.5 -64.5t58.5 -178.5q0 -120 -69 -187.5t-191 -67.5z" />
    <glyph glyph-name="six.lf" horiz-adv-x="633" 
d="M356 476q107 0 166.5 -61t59.5 -171q0 -119 -70.5 -186.5t-188.5 -67.5q-267 0 -267 357q0 190 73.5 296.5t204.5 106.5q101 0 162.5 -57t68.5 -159h-84q-6 68 -44.5 105.5t-102.5 37.5q-90 0 -141 -85.5t-51 -236.5v-72h2q0 91 56 142t156 51zM319 63q83 0 129 46.5
t46 129.5q0 79 -46 123t-129 44q-81 0 -126.5 -42t-45.5 -117q0 -84 48 -134t124 -50z" />
    <glyph glyph-name="seven.lf" horiz-adv-x="535" 
d="M14 740h503v-65q-116 -29 -181 -185.5t-65 -404.5v-85h-90v70q0 261 79 419.5t220 178.5v2h-466v70z" />
    <glyph glyph-name="eight.lf" horiz-adv-x="626" 
d="M381 415q92 -14 142 -68.5t50 -139.5q0 -103 -69 -160t-191 -57t-191 57t-69 160q0 85 50.5 139.5t141.5 68.5v2q-79 0 -123.5 41t-44.5 114q0 83 62.5 130.5t173.5 47.5t173.5 -47.5t62.5 -130.5q0 -73 -44.5 -114t-123.5 -41v-2zM165 544q0 -64 39 -100t109 -36t109 36
t39 100q0 63 -39 98t-109 35t-109 -35t-39 -98zM313 63q81 0 126.5 38t45.5 106t-45.5 106t-126.5 38t-126.5 -38t-45.5 -106t45.5 -106t126.5 -38z" />
    <glyph glyph-name="nine.lf" horiz-adv-x="632" 
d="M312 750q264 0 264 -357q0 -190 -73.5 -296.5t-204.5 -106.5q-102 0 -162.5 62.5t-68.5 173.5h84q5 -77 44 -120t103 -43q90 0 140.5 85t50.5 237v82h-2q0 -86 -56 -134.5t-155 -48.5q-107 0 -166.5 58.5t-59.5 163.5q0 114 71.5 179t190.5 65zM312 354q81 0 127 39.5
t46 109.5q0 80 -48 127t-125 47q-82 0 -128 -43.5t-46 -122.5q0 -75 46 -116t128 -41z" />
    <glyph glyph-name="zero.osf" horiz-adv-x="633" 
d="M317 -10q-124 0 -193 77.5t-69 215.5q0 137 69 214.5t193 77.5t193 -77.5t69 -214.5q0 -138 -69 -215.5t-193 -77.5zM317 58q84 0 131 59.5t47 165.5t-47 165.5t-131 59.5q-85 0 -132 -59.5t-47 -165.5q0 -107 47 -166t132 -59z" />
    <glyph glyph-name="one.osf" horiz-adv-x="339" 
d="M167 565h82v-565h-82v533h-2q0 -63 -35.5 -98.5t-98.5 -35.5v69q64 0 100 25.5t36 71.5z" />
    <glyph glyph-name="two.osf" horiz-adv-x="585" 
d="M79 64h461v-64h-495v60q185 60 289.5 146t104.5 180q0 58 -39.5 90.5t-109.5 32.5t-111.5 -38.5t-45.5 -108.5h-79q5 101 67.5 157t168.5 56q109 0 170 -50t61 -139q0 -115 -117 -199.5t-325 -120.5v-2z" />
    <glyph glyph-name="three.osf" horiz-adv-x="586" 
d="M279 272q120 0 188 -51.5t68 -142.5q0 -93 -68 -145.5t-189 -52.5q-107 0 -169.5 58t-67.5 161h78q4 -72 46 -112.5t114 -40.5q81 0 126.5 35t45.5 97q0 64 -46.5 99.5t-129.5 35.5h-20v61q82 7 128.5 40.5t46.5 85.5t-39 80.5t-109 28.5q-66 0 -106 -40t-44 -111h-77
q6 102 67.5 159.5t163.5 57.5q107 0 167 -41.5t60 -115.5q0 -68 -62 -106t-172 -38v-2z" />
    <glyph glyph-name="four.osf" horiz-adv-x="584" 
d="M556 64v-64h-96v-110h-82v110h-349v71l274 495h157v-502h96zM378 557l-268 -491v-2h270v493h-2z" />
    <glyph glyph-name="five.osf" horiz-adv-x="605" 
d="M299 -120q-107 0 -173.5 51.5t-79.5 142.5h80q11 -59 57 -92.5t116 -33.5q83 0 129.5 44.5t46.5 123.5q0 78 -45 121.5t-126 43.5q-133 0 -174 -114l-78 11l56 387h406v-63h-332l-52 -320h2q16 76 70.5 119.5t134.5 43.5q105 0 163.5 -60.5t58.5 -168.5
q0 -111 -69 -173.5t-191 -62.5z" />
    <glyph glyph-name="six.osf" horiz-adv-x="632" 
d="M357 462q107 0 167 -60.5t60 -168.5q0 -113 -70.5 -178t-188.5 -65q-140 0 -205.5 86.5t-65.5 268.5q0 181 74 283t206 102q103 0 164.5 -54.5t68.5 -151.5h-79q-5 65 -45.5 101.5t-108.5 36.5q-92 0 -144.5 -84t-52.5 -233v-73h2q0 89 58.5 139.5t159.5 50.5zM321 58
q85 0 132.5 44.5t47.5 125.5q0 80 -47.5 124.5t-132.5 44.5q-84 0 -132 -43t-48 -119q0 -81 50 -129t130 -48z" />
    <glyph glyph-name="seven.osf" horiz-adv-x="540" 
d="M28 565h483v-59q-121 -33 -188.5 -196t-67.5 -420h-88q0 263 81.5 424t227.5 186v2h-448v63z" />
    <glyph glyph-name="eight.osf" horiz-adv-x="630" 
d="M379 402q95 -13 148 -65.5t53 -134.5q0 -100 -70 -156t-195 -56t-195 56t-70 156q0 82 52.5 134.5t147.5 65.5v2q-83 0 -129.5 39.5t-46.5 109.5q0 83 64 130t177 47t177 -47t64 -130q0 -70 -47 -109.5t-130 -39.5v-2zM157 529q0 -62 42 -96.5t116 -34.5t115.5 34.5
t41.5 96.5q0 63 -41.5 98t-115.5 35t-116 -35t-42 -98zM315 58q85 0 133 38t48 106q0 67 -48 105t-133 38t-133 -38t-48 -105q0 -68 48 -106t133 -38z" />
    <glyph glyph-name="nine.osf" horiz-adv-x="632" 
d="M306 575q140 0 206 -82t66 -253q0 -169 -74.5 -264.5t-206.5 -95.5q-102 0 -164 50t-69 138h79q5 -56 46 -88t108 -32q93 0 145 79t52 221v55h-2q0 -85 -58.5 -132.5t-159.5 -47.5q-107 0 -167 58t-60 161q0 109 70.5 171t188.5 62zM310 188q84 0 132 40t48 112
q0 77 -50 122t-130 45q-85 0 -132.5 -42t-47.5 -118q0 -75 48 -117t132 -42z" />
    <glyph glyph-name="zero.dnom" horiz-adv-x="397" 
d="M198 -6q-77 0 -121 60.5t-44 167.5t44 167.5t121 60.5q78 0 122 -60.5t44 -167.5t-44 -167.5t-122 -60.5zM198 48q47 0 73 46t26 128t-26 128t-73 46q-46 0 -72 -46t-26 -128t26 -128t72 -46z" />
    <glyph glyph-name="one.dnom" horiz-adv-x="230" 
d="M104 444h66v-444h-66v423h-2q0 -46 -22.5 -72t-62.5 -26v57q41 0 64 16.5t23 45.5z" />
    <glyph glyph-name="two.dnom" horiz-adv-x="371" 
d="M52 52h291v-52h-315v49q110 35 172 101.5t62 151.5q0 44 -21 69t-58 25q-38 0 -61 -28.5t-25 -79.5h-64q5 77 44.5 119.5t106.5 42.5q70 0 109 -39.5t39 -110.5q0 -98 -74 -163.5t-206 -82.5v-2z" />
    <glyph glyph-name="three.dnom" horiz-adv-x="369" 
d="M183 251q73 0 114 -33t41 -92q0 -62 -42 -97t-117 -35q-68 0 -108 38.5t-44 106.5h63q2 -43 25.5 -67.5t63.5 -24.5q43 0 67 21t24 58q0 36 -25 57t-70 21h-12v48q44 5 69 25.5t25 51.5q0 32 -20.5 50t-57.5 18q-36 0 -57.5 -24.5t-23.5 -68.5h-63q5 69 44.5 107.5
t105.5 38.5t103 -27t37 -74q0 -45 -38.5 -70.5t-106.5 -25.5v-2h3z" />
    <glyph glyph-name="four.dnom" horiz-adv-x="376" 
d="M355 162v-52h-58v-110h-66v110h-213v56l155 278h124v-282h58zM231 438l-151 -274v-2h153v276h-2z" />
    <glyph glyph-name="five.dnom" horiz-adv-x="371" 
d="M184 -6q-66 0 -107 34.5t-49 96.5h65q6 -36 30 -56.5t61 -20.5q44 0 69 25.5t25 71.5q0 47 -24.5 72.5t-68.5 25.5q-69 0 -89 -68l-64 8l35 261h245v-52h-187l-30 -206h2q8 50 40 78.5t81 28.5q60 0 94 -38.5t34 -105.5q0 -73 -43 -114t-119 -41z" />
    <glyph glyph-name="six.dnom" horiz-adv-x="388" 
d="M226 286q63 0 98 -36.5t35 -101.5q0 -72 -44 -113t-118 -41q-81 0 -123 55t-42 162q0 113 45.5 176t127.5 63q63 0 101 -34.5t43 -96.5h-64q-4 37 -25 57t-55 20q-50 0 -78.5 -48t-28.5 -133v-44h2q0 53 33.5 84t92.5 31zM195 48q45 0 70.5 25.5t25.5 70.5
q0 43 -25.5 66.5t-70.5 23.5q-44 0 -69 -23t-25 -64q0 -45 26 -72t68 -27z" />
    <glyph glyph-name="seven.dnom" horiz-adv-x="332" 
d="M12 444h307v-49q-67 -19 -105 -111t-38 -237v-47h-69v36q0 157 49.5 250t138.5 104v2h-283v52z" />
    <glyph glyph-name="eight.dnom" horiz-adv-x="384" 
d="M230 254q59 -8 91 -41t32 -86q0 -62 -42.5 -97.5t-118.5 -35.5t-118 35.5t-42 97.5q0 53 32 86t90 41v2q-51 0 -79.5 23.5t-28.5 65.5q0 50 38.5 77.5t107.5 27.5t107.5 -27.5t38.5 -77.5q0 -42 -28.5 -65.5t-79.5 -23.5v-2zM113 324q0 -34 21 -53.5t58 -19.5t58 19
t21 54q0 34 -21 53t-58 19t-58 -19t-21 -53zM192 48q44 0 68 21t24 58q0 38 -24 59t-68 21t-68.5 -21t-24.5 -59q0 -37 24.5 -58t68.5 -21z" />
    <glyph glyph-name="nine.dnom" horiz-adv-x="388" 
d="M193 450q163 0 163 -217q0 -113 -45.5 -176t-127.5 -63q-63 0 -101 38t-43 105h64q4 -42 25 -65.5t55 -23.5q50 0 78.5 48t28.5 133v50h-2q0 -51 -33.5 -80t-92.5 -29q-63 0 -98 35t-35 97q0 69 44 108.5t120 39.5zM193 222q44 0 69 21.5t25 59.5q0 43 -26 68t-68 25
q-45 0 -70.5 -23.5t-25.5 -66.5q0 -40 25.5 -62t70.5 -22z" />
    <glyph glyph-name="zero.numr" horiz-adv-x="397" 
d="M198 302q-77 0 -121 60.5t-44 167.5t44 167.5t121 60.5q78 0 122 -60.5t44 -167.5t-44 -167.5t-122 -60.5zM198 356q47 0 73 46t26 128t-26 128t-73 46q-46 0 -72 -46t-26 -128t26 -128t72 -46z" />
    <glyph glyph-name="one.numr" horiz-adv-x="230" 
d="M104 752h66v-444h-66v423h-2q0 -46 -22.5 -72t-62.5 -26v57q41 0 64 16.5t23 45.5z" />
    <glyph glyph-name="two.numr" horiz-adv-x="371" 
d="M52 360h291v-52h-315v49q110 35 172 101.5t62 151.5q0 44 -21 69t-58 25q-38 0 -61 -28.5t-25 -79.5h-64q5 77 44.5 119.5t106.5 42.5q70 0 109 -39.5t39 -110.5q0 -98 -74 -163.5t-206 -82.5v-2z" />
    <glyph glyph-name="three.numr" horiz-adv-x="369" 
d="M182 559q73 0 114 -33t41 -92q0 -62 -42 -97t-117 -35q-68 0 -108 38.5t-44 106.5h63q2 -43 25.5 -67.5t63.5 -24.5q43 0 67 21t24 58q0 36 -25 57t-70 21h-12v48q44 5 69 25.5t25 51.5q0 32 -20.5 50t-57.5 18q-36 0 -57.5 -24.5t-23.5 -68.5h-63q5 69 44.5 107.5
t105.5 38.5t103 -27t37 -74q0 -45 -38.5 -70.5t-106.5 -25.5v-2h3z" />
    <glyph glyph-name="four.numr" horiz-adv-x="376" 
d="M356 470v-52h-58v-110h-66v110h-213v56l155 278h124v-282h58zM232 746l-151 -274v-2h153v276h-2z" />
    <glyph glyph-name="five.numr" horiz-adv-x="371" 
d="M184 302q-66 0 -107 34.5t-49 96.5h65q6 -36 30 -56.5t61 -20.5q44 0 69 25.5t25 71.5q0 47 -24.5 72.5t-68.5 25.5q-69 0 -89 -68l-64 8l35 261h245v-52h-187l-30 -206h2q8 50 40 78.5t81 28.5q60 0 94 -38.5t34 -105.5q0 -73 -43 -114t-119 -41z" />
    <glyph glyph-name="six.numr" horiz-adv-x="388" 
d="M226 594q63 0 98 -36.5t35 -101.5q0 -72 -44 -113t-118 -41q-81 0 -123 55t-42 162q0 113 45.5 176t127.5 63q63 0 101 -34.5t43 -96.5h-64q-4 37 -25 57t-55 20q-50 0 -78.5 -48t-28.5 -133v-44h2q0 53 33.5 84t92.5 31zM195 356q45 0 70.5 25.5t25.5 70.5
q0 43 -25.5 66.5t-70.5 23.5q-44 0 -69 -23t-25 -64q0 -45 26 -72t68 -27z" />
    <glyph glyph-name="seven.numr" horiz-adv-x="332" 
d="M13 752h307v-49q-67 -19 -105 -111t-38 -237v-47h-69v36q0 157 49.5 250t138.5 104v2h-283v52z" />
    <glyph glyph-name="eight.numr" horiz-adv-x="384" 
d="M230 562q59 -8 91 -41t32 -86q0 -62 -42.5 -97.5t-118.5 -35.5t-118 35.5t-42 97.5q0 53 32 86t90 41v2q-51 0 -79.5 23.5t-28.5 65.5q0 50 38.5 77.5t107.5 27.5t107.5 -27.5t38.5 -77.5q0 -42 -28.5 -65.5t-79.5 -23.5v-2zM113 632q0 -34 21 -53.5t58 -19.5t58 19
t21 54q0 34 -21 53t-58 19t-58 -19t-21 -53zM192 356q44 0 68 21t24 58q0 38 -24 59t-68 21t-68.5 -21t-24.5 -59q0 -37 24.5 -58t68.5 -21z" />
    <glyph glyph-name="nine.numr" horiz-adv-x="388" 
d="M193 758q163 0 163 -217q0 -113 -45.5 -176t-127.5 -63q-63 0 -101 38t-43 105h64q4 -42 25 -65.5t55 -23.5q50 0 78.5 48t28.5 133v50h-2q0 -51 -33.5 -80t-92.5 -29q-63 0 -98 35t-35 97q0 69 44 108.5t120 39.5zM193 530q44 0 69 21.5t25 59.5q0 43 -26 68t-68 25
q-45 0 -70.5 -23.5t-25.5 -66.5q0 -40 25.5 -62t70.5 -22z" />
    <glyph glyph-name="backslash.case" horiz-adv-x="366" 
d="M74 770l262 -786l-44 -14l-261 786z" />
    <glyph glyph-name="exclamdown.case" horiz-adv-x="271" 
d="M85 645v95h100v-95h-100zM98 547h76l5 -547h-86z" />
    <glyph glyph-name="questiondown.case" horiz-adv-x="540" 
d="M351 645h-99v95h99v-95zM510 228q-6 -113 -67.5 -175.5t-166.5 -62.5q-108 0 -168 55t-60 151q0 78 55.5 170.5t153.5 180.5h81v-2q-94 -90 -147 -181t-53 -163q0 -65 37 -101.5t103 -36.5q67 0 106.5 43.5t43.5 121.5h82z" />
    <glyph glyph-name="slash.case" horiz-adv-x="366" 
d="M292 770l43 -14l-261 -786l-44 14z" />
    <glyph glyph-name="numbersign.osf" horiz-adv-x="593" 
d="M551 371h-104l-19 -162h101l-5 -38h-100l-20 -171h-48l19 171h-187l-20 -171h-48l20 171h-104l5 38h104l19 162h-101l5 38h100l18 151h48l-18 -151h187l18 151h48l-18 -151h105zM381 209l19 162h-189l-20 -162h190z" />
    <glyph glyph-name="braceleft.case" horiz-adv-x="278" 
d="M169 472q0 -76 -67 -102q67 -28 67 -103v-209q0 -29 17 -47t44 -18v-43q-49 0 -78.5 28t-29.5 74v209q0 41 -23 63.5t-64 22.5v45q41 0 64 22.5t23 63.5v210q0 46 29.5 74t78.5 28v-43q-27 0 -44 -18t-17 -47v-210z" />
    <glyph glyph-name="braceright.case" horiz-adv-x="278" 
d="M156 478q0 -41 23 -63.5t64 -22.5v-45q-41 0 -64 -22.5t-23 -63.5v-209q0 -46 -29.5 -74t-78.5 -28v43q27 0 44 18t17 47v209q0 75 67 103q-67 26 -67 102v210q0 29 -17 47t-44 18v43q49 0 78.5 -28t29.5 -74v-210z" />
    <glyph glyph-name="bracketleft.case" horiz-adv-x="309" 
d="M283 747h-141v-754h141v-43h-188v840h188v-43z" />
    <glyph glyph-name="bracketright.case" horiz-adv-x="309" 
d="M214 790v-840h-188v43h141v754h-141v43h188z" />
    <glyph glyph-name="parenleft.case" horiz-adv-x="263" 
d="M233 -33q-132 177 -132 403q0 224 132 403l-37 27q-143 -194 -143 -430t143 -430z" />
    <glyph glyph-name="parenright.case" horiz-adv-x="263" 
d="M30 -33l37 -27q143 194 143 430t-143 430l-37 -27q132 -179 132 -403q0 -226 -132 -403z" />
    <glyph glyph-name="emdash.case" horiz-adv-x="870" 
d="M70 381h730v-39h-730v39z" />
    <glyph glyph-name="endash.case" horiz-adv-x="586" 
d="M70 381h446v-39h-446v39z" />
    <glyph glyph-name="hyphen.case" horiz-adv-x="407" 
d="M70 381h268v-39h-268v39z" />
    <glyph glyph-name="uni00AD.case" horiz-adv-x="407" 
d="M70 381h268v-39h-268v39z" />
    <glyph glyph-name="guillemotleft.case" horiz-adv-x="455" 
d="M49 360l128 193h50l-126 -193l126 -193h-50zM209 360l128 193h50l-126 -193l126 -193h-50z" />
    <glyph glyph-name="guillemotright.case" horiz-adv-x="455" 
d="M246 360l-128 -193h-50l126 193l-126 193h50zM406 360l-128 -193h-50l126 193l-126 193h50z" />
    <glyph glyph-name="guilsinglleft.case" horiz-adv-x="295" 
d="M49 360l128 193h50l-126 -193l126 -193h-50z" />
    <glyph glyph-name="guilsinglright.case" horiz-adv-x="295" 
d="M246 360l-128 -193h-50l126 193l-126 193h50z" />
    <glyph glyph-name="cent.osf" horiz-adv-x="555" 
d="M519 175q-16 -82 -69 -130t-137 -54v-101h-46v101q-103 7 -160.5 74.5t-57.5 182.5t57.5 182t160.5 74v93h46v-93q81 -6 134 -51t69 -122h-82q-30 94 -121 106v-378q98 14 124 116h82zM133 248q0 -83 35 -132t99 -57v378q-64 -8 -99 -57.5t-35 -131.5z" />
    <glyph glyph-name="dollar.osf" horiz-adv-x="549" 
d="M509 166q0 -78 -55.5 -123t-155.5 -50v-81h-46v81q-95 5 -150.5 57t-62.5 141h78q4 -58 39.5 -92.5t95.5 -40.5v206q-36 5 -58 9.5t-51.5 15.5t-46.5 25.5t-29 39.5t-12 58q0 74 51.5 115.5t145.5 45.5v80h46v-80q86 -6 137.5 -55.5t56.5 -133.5h-78q-3 52 -33.5 84
t-82.5 39v-182q38 -6 61 -10.5t55 -16t50 -27t31.5 -42.5t13.5 -63zM136 417q0 -39 29.5 -56.5t86.5 -28.5v176q-55 -3 -85.5 -27t-30.5 -64zM298 58q62 4 96.5 30t34.5 70q0 46 -34 67t-97 32v-199z" />
    <glyph glyph-name="Euro.osf" horiz-adv-x="560" 
d="M486 111l34 -55q-36 -30 -84 -47t-92 -17q-106 0 -171 60t-79 170h-56v34h53q-1 9 -1 28t1 28h-53v35h56q15 108 80 167.5t170 59.5q95 0 163 -45l-33 -57q-53 37 -130 37q-68 0 -111 -42t-56 -119h224l-19 -36h-209q-1 -9 -1 -28q0 -18 1 -27h178l-20 -35h-154
q12 -78 55.5 -121.5t111.5 -43.5q81 0 142 54z" />
    <glyph glyph-name="sterling.osf" horiz-adv-x="532" 
d="M67 64h420v-64h-436v61q94 60 94 157q0 16 -4 28h-80v40h66q-2 4 -14 30t-16.5 36.5t-9.5 30t-5 35.5q0 74 52 115t145 41q90 0 143 -49t58 -138h-76q-4 58 -37 90t-88 32q-53 0 -83 -24.5t-30 -69.5q0 -19 6.5 -38.5t22.5 -51t19 -39.5h176v-40h-163q3 -12 3 -24
q0 -104 -163 -157v-1z" />
    <glyph glyph-name="yen.osf" horiz-adv-x="582" 
d="M547 565l-170 -345h108v-33h-125l-22 -46h147v-35h-165l-52 -106h-89l51 106h-127v35h144l23 46h-167v33h102l-171 345h95l164 -340h2l164 340h88z" />
    <glyph glyph-name="plus.case" horiz-adv-x="462" 
d="M422 372v-40h-168v-171h-47v171h-167v40h167v171h46v-171h169z" />
    <glyph glyph-name="minus.case" horiz-adv-x="520" 
d="M69 332v40h383v-40h-383z" />
    <glyph glyph-name="multiply.case" horiz-adv-x="471" 
d="M416 494l-149 -148l149 -148l-32 -32l-149 149l-149 -149l-30 31l148 149l-148 148l30 32l150 -149l148 149z" />
    <glyph glyph-name="divide.case" horiz-adv-x="517" 
d="M259 462q-34 0 -34 32q0 33 34 33t34 -33q0 -32 -34 -32zM68 332v40h382v-40h-382zM259 177q-34 0 -34 31q0 34 34 34t34 -34q0 -31 -34 -31z" />
    <glyph glyph-name="equal.case" horiz-adv-x="520" 
d="M69 403v40h383v-40h-383zM69 261v40h383v-40h-383z" />
    <glyph glyph-name="notequal.case" horiz-adv-x="520" 
d="M452 403h-154l-30 -102h184v-40h-195l-47 -161h-44l47 161h-144v40h155l30 102h-185v40h197l44 152h44l-44 -152h142v-40z" />
    <glyph glyph-name="greater.case" horiz-adv-x="476" 
d="M65 553l370 -162v-77l-370 -161v44l364 154v2l-364 156v44z" />
    <glyph glyph-name="less.case" horiz-adv-x="476" 
d="M410 509l-364 -156v-2l364 -154v-44l-370 161v77l370 162v-44z" />
    <glyph glyph-name="greaterequal.case" horiz-adv-x="538" 
d="M84 600l382 -141v-76l-382 -140v44l376 132v2l-376 135v44zM83 112v40h383v-40h-383z" />
    <glyph glyph-name="lessequal.case" horiz-adv-x="538" 
d="M455 287v-44l-382 140v76l382 141v-44l-376 -135v-2zM73 152h383v-40h-383v40z" />
    <glyph glyph-name="plusminus.case" horiz-adv-x="524" 
d="M285 437h169v-40h-169v-159h-46v159h-168v40h168v160h46v-160zM71 112v40h383v-40h-383z" />
    <glyph glyph-name="logicalnot.case" horiz-adv-x="516" 
d="M60 437h382v-174h-46v135h-336v39z" />
    <glyph glyph-name="percent.osf" horiz-adv-x="668" 
d="M169 263q-60 0 -93 41t-33 115t33 115t93 41q61 0 94.5 -41t33.5 -115t-33.5 -115t-94.5 -41zM106 13l423 562l31 -22l-422 -563zM170 312q31 0 48 28.5t17 78.5t-17 78.5t-48 28.5t-48.5 -28.5t-17.5 -78.5t17.5 -78.5t48.5 -28.5zM497 -10q-60 0 -93.5 41t-33.5 115
t33.5 115.5t93.5 41.5t93.5 -41.5t33.5 -115.5t-33.5 -115t-93.5 -41zM497 39q31 0 48.5 28.5t17.5 78.5t-17.5 78.5t-48.5 28.5t-48 -28.5t-17 -78.5t17 -78.5t48 -28.5z" />
    <glyph glyph-name="perthousand.osf" horiz-adv-x="955" 
d="M169 263q-60 0 -93 41t-33 115t33 115t93 41q61 0 94.5 -41t33.5 -115t-33.5 -115t-94.5 -41zM106 13l423 562l31 -22l-422 -563zM170 312q31 0 48 28.5t17 78.5t-17 78.5t-48 28.5t-48.5 -28.5t-17.5 -78.5t17.5 -78.5t48.5 -28.5zM497 -10q-60 0 -93.5 41t-33.5 115
t33.5 115.5t93.5 41.5t93.5 -41.5t33.5 -115.5t-33.5 -115t-93.5 -41zM793 -10q-60 0 -93.5 41t-33.5 115t33.5 115.5t93.5 41.5t93.5 -41.5t33.5 -115.5t-33.5 -115t-93.5 -41zM497 39q31 0 48.5 28.5t17.5 78.5t-17.5 78.5t-48.5 28.5t-48 -28.5t-17 -78.5t17 -78.5
t48 -28.5zM793 39q31 0 48.5 28.5t17.5 78.5t-17.5 78.5t-48.5 28.5t-48.5 -28.5t-17.5 -78.5t17.5 -78.5t48.5 -28.5z" />
    </font>
</defs>
</svg>
